/* G:\Alistra\Midi\Arp2.mid (05.07.2019 1:40:29)
   StartOffset(h): 00000000, EndOffset(h): 00000272, Длина(h): 00000273 */

unsigned char rawData[627] = {
	0x4D, 0x54, 0x68, 0x64, 0x00, 0x00, 0x00, 0x06, 0x00, 0x00, 0x00, 0x01,
	0x00, 0x60, 0x4D, 0x54, 0x72, 0x6B, 0x00, 0x00, 0x02, 0x5D, 0x00, 0xFF,
	0x03, 0x05, 0x41, 0x72, 0x70, 0x32, 0x00, 0x00, 0xFF, 0x58, 0x04, 0x04,
	0x02, 0x24, 0x08, 0x00, 0xFF, 0x58, 0x04, 0x04, 0x02, 0x24, 0x08, 0x00,
	0x90, 0x3F, 0x3C, 0x24, 0x80, 0x3F, 0x40, 0x00, 0x90, 0x42, 0x3C, 0x24,
	0x80, 0x42, 0x40, 0x00, 0x90, 0x46, 0x3C, 0x24, 0x80, 0x46, 0x40, 0x00,
	0x90, 0x4B, 0x3C, 0x24, 0x90, 0x3F, 0x3C, 0x00, 0x80, 0x4B, 0x40, 0x24,
	0x80, 0x3F, 0x40, 0x00, 0x90, 0x42, 0x3C, 0x24, 0x80, 0x42, 0x40, 0x00,
	0x90, 0x46, 0x3C, 0x24, 0x80, 0x46, 0x40, 0x00, 0x90, 0x4B, 0x3C, 0x24,
	0x90, 0x3F, 0x3C, 0x00, 0x80, 0x4B, 0x40, 0x24, 0x80, 0x3F, 0x40, 0x00,
	0x90, 0x42, 0x3C, 0x24, 0x80, 0x42, 0x40, 0x00, 0x90, 0x46, 0x3C, 0x24,
	0x80, 0x46, 0x40, 0x00, 0x90, 0x4B, 0x3C, 0x24, 0x90, 0x3F, 0x3C, 0x00,
	0x80, 0x4B, 0x40, 0x24, 0x80, 0x3F, 0x40, 0x00, 0x90, 0x42, 0x3C, 0x24,
	0x80, 0x42, 0x40, 0x00, 0x90, 0x49, 0x3C, 0x24, 0x80, 0x49, 0x40, 0x00,
	0x90, 0x4B, 0x3C, 0x24, 0x90, 0x3F, 0x3C, 0x00, 0x80, 0x4B, 0x40, 0x24,
	0x80, 0x3F, 0x40, 0x00, 0x90, 0x42, 0x3C, 0x24, 0x80, 0x42, 0x40, 0x00,
	0x90, 0x49, 0x3C, 0x24, 0x80, 0x49, 0x40, 0x00, 0x90, 0x4B, 0x3C, 0x24,
	0x90, 0x3F, 0x3C, 0x00, 0x80, 0x4B, 0x40, 0x24, 0x80, 0x3F, 0x40, 0x00,
	0x90, 0x42, 0x3C, 0x24, 0x80, 0x42, 0x40, 0x00, 0x90, 0x49, 0x3C, 0x24,
	0x80, 0x49, 0x40, 0x00, 0x90, 0x4B, 0x3C, 0x24, 0x90, 0x3F, 0x3C, 0x00,
	0x80, 0x4B, 0x40, 0x24, 0x80, 0x3F, 0x40, 0x00, 0x90, 0x42, 0x3C, 0x24,
	0x80, 0x42, 0x40, 0x00, 0x90, 0x49, 0x3C, 0x24, 0x80, 0x49, 0x40, 0x00,
	0x90, 0x4B, 0x3C, 0x24, 0x90, 0x3F, 0x3C, 0x00, 0x80, 0x4B, 0x40, 0x24,
	0x80, 0x3F, 0x40, 0x00, 0x90, 0x42, 0x3C, 0x24, 0x80, 0x42, 0x40, 0x00,
	0x90, 0x49, 0x3C, 0x24, 0x80, 0x49, 0x40, 0x00, 0x90, 0x4B, 0x3C, 0x24,
	0x90, 0x3F, 0x3C, 0x00, 0x80, 0x4B, 0x40, 0x24, 0x80, 0x3F, 0x40, 0x00,
	0x90, 0x42, 0x3C, 0x24, 0x80, 0x42, 0x40, 0x00, 0x90, 0x49, 0x3C, 0x24,
	0x80, 0x49, 0x40, 0x00, 0x90, 0x4B, 0x3C, 0x24, 0x90, 0x3F, 0x3C, 0x00,
	0x80, 0x4B, 0x40, 0x24, 0x80, 0x3F, 0x40, 0x00, 0x90, 0x42, 0x3C, 0x24,
	0x80, 0x42, 0x40, 0x00, 0x90, 0x49, 0x3C, 0x24, 0x80, 0x49, 0x40, 0x00,
	0x90, 0x4B, 0x3C, 0x24, 0x90, 0x3F, 0x3C, 0x00, 0x80, 0x4B, 0x40, 0x24,
	0x80, 0x3F, 0x40, 0x00, 0x90, 0x42, 0x3C, 0x24, 0x80, 0x42, 0x40, 0x00,
	0x90, 0x46, 0x3C, 0x24, 0x80, 0x46, 0x40, 0x00, 0x90, 0x4B, 0x3C, 0x24,
	0x90, 0x3F, 0x3C, 0x00, 0x80, 0x4B, 0x40, 0x24, 0x80, 0x3F, 0x40, 0x00,
	0x90, 0x42, 0x3C, 0x24, 0x80, 0x42, 0x40, 0x00, 0x90, 0x46, 0x3C, 0x24,
	0x80, 0x46, 0x40, 0x00, 0x90, 0x4B, 0x3C, 0x24, 0x90, 0x3F, 0x3C, 0x00,
	0x80, 0x4B, 0x40, 0x24, 0x80, 0x3F, 0x40, 0x00, 0x90, 0x42, 0x3C, 0x24,
	0x80, 0x42, 0x40, 0x00, 0x90, 0x46, 0x3C, 0x24, 0x80, 0x46, 0x40, 0x00,
	0x90, 0x4B, 0x3C, 0x24, 0x90, 0x3F, 0x3C, 0x00, 0x80, 0x4B, 0x40, 0x24,
	0x80, 0x3F, 0x40, 0x00, 0x90, 0x42, 0x3C, 0x24, 0x80, 0x42, 0x40, 0x00,
	0x90, 0x46, 0x3C, 0x24, 0x80, 0x46, 0x40, 0x00, 0x90, 0x4B, 0x3C, 0x24,
	0x90, 0x3F, 0x3C, 0x00, 0x80, 0x4B, 0x40, 0x24, 0x80, 0x3F, 0x40, 0x00,
	0x90, 0x42, 0x3C, 0x24, 0x80, 0x42, 0x40, 0x00, 0x90, 0x46, 0x3C, 0x24,
	0x80, 0x46, 0x40, 0x00, 0x90, 0x4B, 0x3C, 0x24, 0x90, 0x3F, 0x3C, 0x00,
	0x80, 0x4B, 0x40, 0x24, 0x80, 0x3F, 0x40, 0x00, 0x90, 0x42, 0x3C, 0x24,
	0x80, 0x42, 0x40, 0x00, 0x90, 0x46, 0x3C, 0x24, 0x80, 0x46, 0x40, 0x00,
	0x90, 0x4B, 0x3C, 0x24, 0x90, 0x3F, 0x3C, 0x00, 0x80, 0x4B, 0x40, 0x24,
	0x80, 0x3F, 0x40, 0x00, 0x90, 0x42, 0x3C, 0x24, 0x80, 0x42, 0x40, 0x00,
	0x90, 0x46, 0x3C, 0x24, 0x80, 0x46, 0x40, 0x00, 0x90, 0x4B, 0x3C, 0x24,
	0x90, 0x3F, 0x3C, 0x00, 0x80, 0x4B, 0x40, 0x24, 0x80, 0x3F, 0x40, 0x00,
	0x90, 0x42, 0x3C, 0x24, 0x80, 0x42, 0x40, 0x00, 0x90, 0x46, 0x3C, 0x24,
	0x80, 0x46, 0x40, 0x00, 0x90, 0x4B, 0x3C, 0x24, 0x80, 0x4B, 0x40, 0x00,
	0xFF, 0x2F, 0x00
};
