/* G:\Alistra\Midi\ArpegFinalMain11.mid (12.08.2019 23:52:12)
   StartOffset(h): 00000000, EndOffset(h): 00001B10, Длина(h): 00001B11 */

unsigned char rawData[6929] = {
	0x4D, 0x54, 0x68, 0x64, 0x00, 0x00, 0x00, 0x06, 0x00, 0x00, 0x00, 0x01,
	0x03, 0xC0, 0x4D, 0x54, 0x72, 0x6B, 0x00, 0x00, 0x1A, 0xFB, 0x00, 0xFF,
	0x58, 0x04, 0x04, 0x02, 0x18, 0x08, 0x00, 0xFF, 0x51, 0x03, 0x06, 0x8A,
	0x1B, 0x00, 0xFF, 0x03, 0x05, 0x41, 0x72, 0x70, 0x31, 0x00, 0x83, 0xE0,
	0x00, 0x90, 0x3F, 0x3C, 0x85, 0x50, 0x80, 0x3F, 0x40, 0x00, 0x90, 0x42,
	0x3C, 0x85, 0x50, 0x80, 0x42, 0x40, 0x00, 0x90, 0x46, 0x3C, 0x85, 0x50,
	0x80, 0x46, 0x40, 0x00, 0x90, 0x4B, 0x3C, 0x85, 0x50, 0x90, 0x3F, 0x3C,
	0x00, 0x80, 0x4B, 0x40, 0x85, 0x50, 0x80, 0x3F, 0x40, 0x00, 0x90, 0x42,
	0x3C, 0x85, 0x50, 0x80, 0x42, 0x40, 0x00, 0x90, 0x46, 0x3C, 0x85, 0x50,
	0x80, 0x46, 0x40, 0x00, 0x90, 0x4B, 0x3C, 0x85, 0x50, 0x90, 0x3F, 0x3C,
	0x00, 0x80, 0x4B, 0x40, 0x85, 0x50, 0x80, 0x3F, 0x40, 0x00, 0x90, 0x42,
	0x3C, 0x85, 0x50, 0x80, 0x42, 0x40, 0x00, 0x90, 0x46, 0x3C, 0x85, 0x50,
	0x80, 0x46, 0x40, 0x00, 0x90, 0x4B, 0x3C, 0x85, 0x50, 0x90, 0x3F, 0x3C,
	0x00, 0x80, 0x4B, 0x40, 0x85, 0x50, 0x80, 0x3F, 0x40, 0x00, 0x90, 0x42,
	0x3C, 0x85, 0x50, 0x80, 0x42, 0x40, 0x00, 0x90, 0x46, 0x3C, 0x85, 0x50,
	0x80, 0x46, 0x40, 0x00, 0x90, 0x4B, 0x3C, 0x85, 0x50, 0x90, 0x3F, 0x3C,
	0x00, 0x80, 0x4B, 0x40, 0x85, 0x50, 0x80, 0x3F, 0x40, 0x00, 0x90, 0x42,
	0x3C, 0x85, 0x50, 0x80, 0x42, 0x40, 0x00, 0x90, 0x49, 0x3C, 0x85, 0x50,
	0x80, 0x49, 0x40, 0x00, 0x90, 0x4B, 0x3C, 0x85, 0x50, 0x90, 0x3F, 0x3C,
	0x00, 0x80, 0x4B, 0x40, 0x85, 0x50, 0x80, 0x3F, 0x40, 0x00, 0x90, 0x42,
	0x3C, 0x85, 0x50, 0x80, 0x42, 0x40, 0x00, 0x90, 0x49, 0x3C, 0x85, 0x50,
	0x80, 0x49, 0x40, 0x00, 0x90, 0x4B, 0x3C, 0x85, 0x50, 0x90, 0x3F, 0x3C,
	0x00, 0x80, 0x4B, 0x40, 0x85, 0x50, 0x80, 0x3F, 0x40, 0x00, 0x90, 0x42,
	0x3C, 0x85, 0x50, 0x80, 0x42, 0x40, 0x00, 0x90, 0x49, 0x3C, 0x85, 0x50,
	0x80, 0x49, 0x40, 0x00, 0x90, 0x4B, 0x3C, 0x85, 0x50, 0x90, 0x3F, 0x3C,
	0x00, 0x80, 0x4B, 0x40, 0x85, 0x50, 0x80, 0x3F, 0x40, 0x00, 0x90, 0x42,
	0x3C, 0x85, 0x50, 0x80, 0x42, 0x40, 0x00, 0x90, 0x49, 0x3C, 0x85, 0x50,
	0x80, 0x49, 0x40, 0x00, 0x90, 0x4B, 0x3C, 0x85, 0x50, 0x90, 0x3F, 0x3C,
	0x00, 0x80, 0x4B, 0x40, 0x85, 0x50, 0x80, 0x3F, 0x40, 0x00, 0x90, 0x42,
	0x3C, 0x85, 0x50, 0x80, 0x42, 0x40, 0x00, 0x90, 0x46, 0x3C, 0x85, 0x50,
	0x80, 0x46, 0x40, 0x00, 0x90, 0x4B, 0x3C, 0x85, 0x50, 0x90, 0x3F, 0x3C,
	0x00, 0x80, 0x4B, 0x40, 0x85, 0x50, 0x80, 0x3F, 0x40, 0x00, 0x90, 0x42,
	0x3C, 0x85, 0x50, 0x80, 0x42, 0x40, 0x00, 0x90, 0x46, 0x3C, 0x85, 0x50,
	0x80, 0x46, 0x40, 0x00, 0x90, 0x4B, 0x3C, 0x85, 0x50, 0x90, 0x3F, 0x3C,
	0x00, 0x80, 0x4B, 0x40, 0x85, 0x50, 0x80, 0x3F, 0x40, 0x00, 0x90, 0x42,
	0x3C, 0x85, 0x50, 0x80, 0x42, 0x40, 0x00, 0x90, 0x46, 0x3C, 0x85, 0x50,
	0x80, 0x46, 0x40, 0x00, 0x90, 0x4B, 0x3C, 0x85, 0x50, 0x90, 0x3F, 0x3C,
	0x00, 0x80, 0x4B, 0x40, 0x85, 0x50, 0x80, 0x3F, 0x40, 0x00, 0x90, 0x42,
	0x3C, 0x85, 0x50, 0x80, 0x42, 0x40, 0x00, 0x90, 0x46, 0x3C, 0x85, 0x50,
	0x80, 0x46, 0x40, 0x00, 0x90, 0x4B, 0x3C, 0x85, 0x50, 0x90, 0x3F, 0x3C,
	0x00, 0x80, 0x4B, 0x40, 0x85, 0x50, 0x80, 0x3F, 0x40, 0x00, 0x90, 0x42,
	0x3C, 0x85, 0x50, 0x80, 0x42, 0x40, 0x00, 0x90, 0x49, 0x3C, 0x85, 0x50,
	0x80, 0x49, 0x40, 0x00, 0x90, 0x4B, 0x3C, 0x85, 0x50, 0x90, 0x3F, 0x3C,
	0x00, 0x80, 0x4B, 0x40, 0x85, 0x50, 0x80, 0x3F, 0x40, 0x00, 0x90, 0x42,
	0x3C, 0x85, 0x50, 0x80, 0x42, 0x40, 0x00, 0x90, 0x49, 0x3C, 0x85, 0x50,
	0x80, 0x49, 0x40, 0x00, 0x90, 0x4B, 0x3C, 0x85, 0x50, 0x90, 0x3F, 0x3C,
	0x00, 0x80, 0x4B, 0x40, 0x85, 0x50, 0x80, 0x3F, 0x40, 0x00, 0x90, 0x42,
	0x3C, 0x85, 0x50, 0x80, 0x42, 0x40, 0x00, 0x90, 0x49, 0x3C, 0x85, 0x50,
	0x80, 0x49, 0x40, 0x00, 0x90, 0x4B, 0x3C, 0x85, 0x50, 0x90, 0x3F, 0x3C,
	0x00, 0x80, 0x4B, 0x40, 0x85, 0x50, 0x80, 0x3F, 0x40, 0x00, 0x90, 0x42,
	0x3C, 0x85, 0x50, 0x80, 0x42, 0x40, 0x00, 0x90, 0x49, 0x3C, 0x85, 0x50,
	0x80, 0x49, 0x40, 0x00, 0x90, 0x4B, 0x3C, 0x85, 0x50, 0x90, 0x3F, 0x3C,
	0x00, 0x80, 0x4B, 0x40, 0x85, 0x50, 0x80, 0x3F, 0x40, 0x00, 0x90, 0x42,
	0x3C, 0x85, 0x50, 0x80, 0x42, 0x40, 0x00, 0x90, 0x46, 0x3C, 0x85, 0x50,
	0x80, 0x46, 0x40, 0x00, 0x90, 0x4B, 0x3C, 0x85, 0x50, 0x90, 0x3F, 0x3C,
	0x00, 0x80, 0x4B, 0x40, 0x85, 0x50, 0x80, 0x3F, 0x40, 0x00, 0x90, 0x42,
	0x3C, 0x85, 0x50, 0x80, 0x42, 0x40, 0x00, 0x90, 0x46, 0x3C, 0x85, 0x50,
	0x80, 0x46, 0x40, 0x00, 0x90, 0x4B, 0x3C, 0x85, 0x50, 0x90, 0x3F, 0x3C,
	0x00, 0x80, 0x4B, 0x40, 0x85, 0x50, 0x80, 0x3F, 0x40, 0x00, 0x90, 0x42,
	0x3C, 0x85, 0x50, 0x80, 0x42, 0x40, 0x00, 0x90, 0x46, 0x3C, 0x85, 0x50,
	0x80, 0x46, 0x40, 0x00, 0x90, 0x4B, 0x3C, 0x85, 0x50, 0x90, 0x3F, 0x3C,
	0x00, 0x80, 0x4B, 0x40, 0x85, 0x50, 0x80, 0x3F, 0x40, 0x00, 0x90, 0x42,
	0x3C, 0x85, 0x50, 0x80, 0x42, 0x40, 0x00, 0x90, 0x46, 0x3C, 0x85, 0x50,
	0x80, 0x46, 0x40, 0x00, 0x90, 0x4B, 0x3C, 0x85, 0x50, 0x90, 0x3F, 0x3C,
	0x00, 0x80, 0x4B, 0x40, 0x85, 0x50, 0x80, 0x3F, 0x40, 0x00, 0x90, 0x42,
	0x3C, 0x85, 0x50, 0x80, 0x42, 0x40, 0x00, 0x90, 0x49, 0x3C, 0x85, 0x50,
	0x80, 0x49, 0x40, 0x00, 0x90, 0x4B, 0x3C, 0x85, 0x50, 0x90, 0x3F, 0x3C,
	0x00, 0x80, 0x4B, 0x40, 0x85, 0x50, 0x80, 0x3F, 0x40, 0x00, 0x90, 0x42,
	0x3C, 0x85, 0x50, 0x80, 0x42, 0x40, 0x00, 0x90, 0x49, 0x3C, 0x85, 0x50,
	0x80, 0x49, 0x40, 0x00, 0x90, 0x4B, 0x3C, 0x85, 0x50, 0x90, 0x3F, 0x3C,
	0x00, 0x80, 0x4B, 0x40, 0x85, 0x50, 0x80, 0x3F, 0x40, 0x00, 0x90, 0x42,
	0x3C, 0x85, 0x50, 0x80, 0x42, 0x40, 0x00, 0x90, 0x49, 0x3C, 0x85, 0x50,
	0x80, 0x49, 0x40, 0x00, 0x90, 0x4B, 0x3C, 0x85, 0x50, 0x90, 0x3F, 0x3C,
	0x00, 0x80, 0x4B, 0x40, 0x85, 0x50, 0x80, 0x3F, 0x40, 0x00, 0x90, 0x42,
	0x3C, 0x85, 0x50, 0x80, 0x42, 0x40, 0x00, 0x90, 0x49, 0x3C, 0x85, 0x50,
	0x80, 0x49, 0x40, 0x00, 0x90, 0x4B, 0x3C, 0x85, 0x50, 0x90, 0x3F, 0x3C,
	0x00, 0x80, 0x4B, 0x40, 0x85, 0x50, 0x80, 0x3F, 0x40, 0x00, 0x90, 0x42,
	0x3C, 0x85, 0x50, 0x80, 0x42, 0x40, 0x00, 0x90, 0x46, 0x3C, 0x85, 0x50,
	0x80, 0x46, 0x40, 0x00, 0x90, 0x4B, 0x3C, 0x85, 0x50, 0x90, 0x3F, 0x3C,
	0x00, 0x80, 0x4B, 0x40, 0x85, 0x50, 0x80, 0x3F, 0x40, 0x00, 0x90, 0x42,
	0x3C, 0x85, 0x50, 0x80, 0x42, 0x40, 0x00, 0x90, 0x46, 0x3C, 0x85, 0x50,
	0x80, 0x46, 0x40, 0x00, 0x90, 0x4B, 0x3C, 0x85, 0x50, 0x90, 0x3F, 0x3C,
	0x00, 0x80, 0x4B, 0x40, 0x85, 0x50, 0x80, 0x3F, 0x40, 0x00, 0x90, 0x42,
	0x3C, 0x85, 0x50, 0x80, 0x42, 0x40, 0x00, 0x90, 0x46, 0x3C, 0x85, 0x50,
	0x80, 0x46, 0x40, 0x00, 0x90, 0x4B, 0x3C, 0x85, 0x50, 0x90, 0x3F, 0x3C,
	0x00, 0x80, 0x4B, 0x40, 0x85, 0x50, 0x80, 0x3F, 0x40, 0x00, 0x90, 0x42,
	0x3C, 0x85, 0x50, 0x80, 0x42, 0x40, 0x00, 0x90, 0x46, 0x3C, 0x85, 0x50,
	0x80, 0x46, 0x40, 0x00, 0x90, 0x4B, 0x3C, 0x85, 0x50, 0x90, 0x3F, 0x3C,
	0x00, 0x80, 0x4B, 0x40, 0x85, 0x50, 0x80, 0x3F, 0x40, 0x00, 0x90, 0x42,
	0x3C, 0x85, 0x50, 0x80, 0x42, 0x40, 0x00, 0x90, 0x49, 0x3C, 0x85, 0x50,
	0x80, 0x49, 0x40, 0x00, 0x90, 0x4B, 0x3C, 0x85, 0x50, 0x90, 0x3F, 0x3C,
	0x00, 0x80, 0x4B, 0x40, 0x85, 0x50, 0x80, 0x3F, 0x40, 0x00, 0x90, 0x42,
	0x3C, 0x85, 0x50, 0x80, 0x42, 0x40, 0x00, 0x90, 0x49, 0x3C, 0x85, 0x50,
	0x80, 0x49, 0x40, 0x00, 0x90, 0x4B, 0x3C, 0x85, 0x50, 0x90, 0x3F, 0x3C,
	0x00, 0x80, 0x4B, 0x40, 0x85, 0x50, 0x80, 0x3F, 0x40, 0x00, 0x90, 0x42,
	0x3C, 0x85, 0x50, 0x80, 0x42, 0x40, 0x00, 0x90, 0x49, 0x3C, 0x85, 0x50,
	0x80, 0x49, 0x40, 0x00, 0x90, 0x4B, 0x3C, 0x85, 0x50, 0x90, 0x3F, 0x3C,
	0x00, 0x80, 0x4B, 0x40, 0x85, 0x50, 0x80, 0x3F, 0x40, 0x00, 0x90, 0x42,
	0x3C, 0x85, 0x50, 0x80, 0x42, 0x40, 0x00, 0x90, 0x49, 0x3C, 0x85, 0x50,
	0x80, 0x49, 0x40, 0x00, 0x90, 0x4B, 0x3C, 0x85, 0x50, 0x90, 0x3F, 0x3C,
	0x00, 0x80, 0x4B, 0x40, 0x85, 0x50, 0x80, 0x3F, 0x40, 0x00, 0x90, 0x42,
	0x3C, 0x85, 0x50, 0x80, 0x42, 0x40, 0x00, 0x90, 0x46, 0x3C, 0x85, 0x50,
	0x80, 0x46, 0x40, 0x00, 0x90, 0x4B, 0x3C, 0x85, 0x50, 0x90, 0x3F, 0x3C,
	0x00, 0x80, 0x4B, 0x40, 0x85, 0x50, 0x80, 0x3F, 0x40, 0x00, 0x90, 0x42,
	0x3C, 0x85, 0x50, 0x80, 0x42, 0x40, 0x00, 0x90, 0x46, 0x3C, 0x85, 0x50,
	0x80, 0x46, 0x40, 0x00, 0x90, 0x4B, 0x3C, 0x85, 0x50, 0x90, 0x3F, 0x3C,
	0x00, 0x80, 0x4B, 0x40, 0x85, 0x50, 0x80, 0x3F, 0x40, 0x00, 0x90, 0x42,
	0x3C, 0x85, 0x50, 0x80, 0x42, 0x40, 0x00, 0x90, 0x46, 0x3C, 0x85, 0x50,
	0x80, 0x46, 0x40, 0x00, 0x90, 0x4B, 0x3C, 0x85, 0x50, 0x90, 0x3F, 0x3C,
	0x00, 0x80, 0x4B, 0x40, 0x85, 0x50, 0x80, 0x3F, 0x40, 0x00, 0x90, 0x42,
	0x3C, 0x85, 0x50, 0x80, 0x42, 0x40, 0x00, 0x90, 0x46, 0x3C, 0x85, 0x50,
	0x80, 0x46, 0x40, 0x00, 0x90, 0x4B, 0x3C, 0x85, 0x50, 0x90, 0x3F, 0x3C,
	0x00, 0x80, 0x4B, 0x40, 0x85, 0x50, 0x80, 0x3F, 0x40, 0x00, 0x90, 0x42,
	0x3C, 0x85, 0x50, 0x80, 0x42, 0x40, 0x00, 0x90, 0x49, 0x3C, 0x85, 0x50,
	0x80, 0x49, 0x40, 0x00, 0x90, 0x4B, 0x3C, 0x85, 0x50, 0x90, 0x3F, 0x3C,
	0x00, 0x80, 0x4B, 0x40, 0x85, 0x50, 0x80, 0x3F, 0x40, 0x00, 0x90, 0x42,
	0x3C, 0x85, 0x50, 0x80, 0x42, 0x40, 0x00, 0x90, 0x49, 0x3C, 0x85, 0x50,
	0x80, 0x49, 0x40, 0x00, 0x90, 0x4B, 0x3C, 0x85, 0x50, 0x90, 0x3F, 0x3C,
	0x00, 0x80, 0x4B, 0x40, 0x85, 0x50, 0x80, 0x3F, 0x40, 0x00, 0x90, 0x42,
	0x3C, 0x85, 0x50, 0x80, 0x42, 0x40, 0x00, 0x90, 0x49, 0x3C, 0x85, 0x50,
	0x80, 0x49, 0x40, 0x00, 0x90, 0x4B, 0x3C, 0x85, 0x50, 0x90, 0x3F, 0x3C,
	0x00, 0x80, 0x4B, 0x40, 0x85, 0x50, 0x80, 0x3F, 0x40, 0x00, 0x90, 0x42,
	0x3C, 0x85, 0x50, 0x80, 0x42, 0x40, 0x00, 0x90, 0x49, 0x3C, 0x85, 0x50,
	0x80, 0x49, 0x40, 0x00, 0x90, 0x4B, 0x3C, 0x85, 0x50, 0x90, 0x3F, 0x3C,
	0x00, 0x80, 0x4B, 0x40, 0x85, 0x50, 0x80, 0x3F, 0x40, 0x00, 0x90, 0x42,
	0x3C, 0x85, 0x50, 0x80, 0x42, 0x40, 0x00, 0x90, 0x46, 0x3C, 0x85, 0x50,
	0x80, 0x46, 0x40, 0x00, 0x90, 0x4B, 0x3C, 0x85, 0x50, 0x90, 0x3F, 0x3C,
	0x00, 0x80, 0x4B, 0x40, 0x85, 0x50, 0x80, 0x3F, 0x40, 0x00, 0x90, 0x42,
	0x3C, 0x85, 0x50, 0x80, 0x42, 0x40, 0x00, 0x90, 0x46, 0x3C, 0x85, 0x50,
	0x80, 0x46, 0x40, 0x00, 0x90, 0x4B, 0x3C, 0x85, 0x50, 0x90, 0x3F, 0x3C,
	0x00, 0x80, 0x4B, 0x40, 0x85, 0x50, 0x80, 0x3F, 0x40, 0x00, 0x90, 0x42,
	0x3C, 0x85, 0x50, 0x80, 0x42, 0x40, 0x00, 0x90, 0x46, 0x3C, 0x85, 0x50,
	0x80, 0x46, 0x40, 0x00, 0x90, 0x4B, 0x3C, 0x85, 0x50, 0x90, 0x3F, 0x3C,
	0x00, 0x80, 0x4B, 0x40, 0x85, 0x50, 0x80, 0x3F, 0x40, 0x00, 0x90, 0x42,
	0x3C, 0x85, 0x50, 0x80, 0x42, 0x40, 0x00, 0x90, 0x46, 0x3C, 0x85, 0x50,
	0x80, 0x46, 0x40, 0x00, 0x90, 0x4B, 0x3C, 0x85, 0x50, 0x90, 0x3F, 0x3C,
	0x00, 0x80, 0x4B, 0x40, 0x85, 0x50, 0x80, 0x3F, 0x40, 0x00, 0x90, 0x42,
	0x3C, 0x85, 0x50, 0x80, 0x42, 0x40, 0x00, 0x90, 0x49, 0x3C, 0x85, 0x50,
	0x80, 0x49, 0x40, 0x00, 0x90, 0x4B, 0x3C, 0x85, 0x50, 0x90, 0x3F, 0x3C,
	0x00, 0x80, 0x4B, 0x40, 0x85, 0x50, 0x80, 0x3F, 0x40, 0x00, 0x90, 0x42,
	0x3C, 0x85, 0x50, 0x80, 0x42, 0x40, 0x00, 0x90, 0x49, 0x3C, 0x85, 0x50,
	0x80, 0x49, 0x40, 0x00, 0x90, 0x4B, 0x3C, 0x85, 0x50, 0x90, 0x3F, 0x3C,
	0x00, 0x80, 0x4B, 0x40, 0x85, 0x50, 0x80, 0x3F, 0x40, 0x00, 0x90, 0x42,
	0x3C, 0x85, 0x50, 0x80, 0x42, 0x40, 0x00, 0x90, 0x49, 0x3C, 0x85, 0x50,
	0x80, 0x49, 0x40, 0x00, 0x90, 0x4B, 0x3C, 0x85, 0x50, 0x90, 0x3F, 0x3C,
	0x00, 0x80, 0x4B, 0x40, 0x85, 0x50, 0x80, 0x3F, 0x40, 0x00, 0x90, 0x42,
	0x3C, 0x85, 0x50, 0x80, 0x42, 0x40, 0x00, 0x90, 0x49, 0x3C, 0x85, 0x50,
	0x80, 0x49, 0x40, 0x00, 0x90, 0x4B, 0x3C, 0x85, 0x50, 0x90, 0x3F, 0x3C,
	0x00, 0x80, 0x4B, 0x40, 0x85, 0x50, 0x80, 0x3F, 0x40, 0x00, 0x90, 0x42,
	0x3C, 0x85, 0x50, 0x80, 0x42, 0x40, 0x00, 0x90, 0x46, 0x3C, 0x85, 0x50,
	0x80, 0x46, 0x40, 0x00, 0x90, 0x4B, 0x3C, 0x85, 0x50, 0x90, 0x3F, 0x3C,
	0x00, 0x80, 0x4B, 0x40, 0x85, 0x50, 0x80, 0x3F, 0x40, 0x00, 0x90, 0x42,
	0x3C, 0x85, 0x50, 0x80, 0x42, 0x40, 0x00, 0x90, 0x46, 0x3C, 0x85, 0x50,
	0x80, 0x46, 0x40, 0x00, 0x90, 0x4B, 0x3C, 0x85, 0x50, 0x90, 0x3F, 0x3C,
	0x00, 0x80, 0x4B, 0x40, 0x85, 0x50, 0x80, 0x3F, 0x40, 0x00, 0x90, 0x42,
	0x3C, 0x85, 0x50, 0x80, 0x42, 0x40, 0x00, 0x90, 0x46, 0x3C, 0x85, 0x50,
	0x80, 0x46, 0x40, 0x00, 0x90, 0x4B, 0x3C, 0x85, 0x50, 0x90, 0x3F, 0x3C,
	0x00, 0x80, 0x4B, 0x40, 0x85, 0x50, 0x80, 0x3F, 0x40, 0x00, 0x90, 0x42,
	0x3C, 0x85, 0x50, 0x80, 0x42, 0x40, 0x00, 0x90, 0x46, 0x3C, 0x85, 0x50,
	0x80, 0x46, 0x40, 0x00, 0x90, 0x4B, 0x3C, 0x85, 0x50, 0x90, 0x3F, 0x3C,
	0x00, 0x80, 0x4B, 0x40, 0x85, 0x50, 0x80, 0x3F, 0x40, 0x00, 0x90, 0x42,
	0x3C, 0x85, 0x50, 0x80, 0x42, 0x40, 0x00, 0x90, 0x49, 0x3C, 0x85, 0x50,
	0x80, 0x49, 0x40, 0x00, 0x90, 0x4B, 0x3C, 0x85, 0x50, 0x90, 0x3F, 0x3C,
	0x00, 0x80, 0x4B, 0x40, 0x85, 0x50, 0x80, 0x3F, 0x40, 0x00, 0x90, 0x42,
	0x3C, 0x85, 0x50, 0x80, 0x42, 0x40, 0x00, 0x90, 0x49, 0x3C, 0x85, 0x50,
	0x80, 0x49, 0x40, 0x00, 0x90, 0x4B, 0x3C, 0x85, 0x50, 0x90, 0x3F, 0x3C,
	0x00, 0x80, 0x4B, 0x40, 0x85, 0x50, 0x80, 0x3F, 0x40, 0x00, 0x90, 0x42,
	0x3C, 0x85, 0x50, 0x80, 0x42, 0x40, 0x00, 0x90, 0x49, 0x3C, 0x85, 0x50,
	0x80, 0x49, 0x40, 0x00, 0x90, 0x4B, 0x3C, 0x85, 0x50, 0x90, 0x3F, 0x3C,
	0x00, 0x80, 0x4B, 0x40, 0x85, 0x50, 0x80, 0x3F, 0x40, 0x00, 0x90, 0x42,
	0x3C, 0x85, 0x50, 0x80, 0x42, 0x40, 0x00, 0x90, 0x49, 0x3C, 0x85, 0x50,
	0x80, 0x49, 0x40, 0x00, 0x90, 0x4B, 0x3C, 0x85, 0x50, 0x90, 0x3F, 0x3C,
	0x00, 0x80, 0x4B, 0x40, 0x85, 0x50, 0x80, 0x3F, 0x40, 0x00, 0x90, 0x42,
	0x3C, 0x85, 0x50, 0x80, 0x42, 0x40, 0x00, 0x90, 0x46, 0x3C, 0x85, 0x50,
	0x80, 0x46, 0x40, 0x00, 0x90, 0x4B, 0x3C, 0x85, 0x50, 0x90, 0x3F, 0x3C,
	0x00, 0x80, 0x4B, 0x40, 0x85, 0x50, 0x80, 0x3F, 0x40, 0x00, 0x90, 0x42,
	0x3C, 0x85, 0x50, 0x80, 0x42, 0x40, 0x00, 0x90, 0x46, 0x3C, 0x85, 0x50,
	0x80, 0x46, 0x40, 0x00, 0x90, 0x4B, 0x3C, 0x85, 0x50, 0x90, 0x3F, 0x3C,
	0x00, 0x80, 0x4B, 0x40, 0x85, 0x50, 0x80, 0x3F, 0x40, 0x00, 0x90, 0x42,
	0x3C, 0x85, 0x50, 0x80, 0x42, 0x40, 0x00, 0x90, 0x46, 0x3C, 0x85, 0x50,
	0x80, 0x46, 0x40, 0x00, 0x90, 0x4B, 0x3C, 0x85, 0x50, 0x90, 0x3F, 0x3C,
	0x00, 0x80, 0x4B, 0x40, 0x85, 0x50, 0x80, 0x3F, 0x40, 0x00, 0x90, 0x42,
	0x3C, 0x85, 0x50, 0x80, 0x42, 0x40, 0x00, 0x90, 0x46, 0x3C, 0x85, 0x50,
	0x80, 0x46, 0x40, 0x00, 0x90, 0x4B, 0x3C, 0x85, 0x50, 0x90, 0x3F, 0x3C,
	0x00, 0x80, 0x4B, 0x40, 0x85, 0x50, 0x80, 0x3F, 0x40, 0x00, 0x90, 0x42,
	0x3C, 0x85, 0x50, 0x80, 0x42, 0x40, 0x00, 0x90, 0x49, 0x3C, 0x85, 0x50,
	0x80, 0x49, 0x40, 0x00, 0x90, 0x4B, 0x3C, 0x85, 0x50, 0x90, 0x3F, 0x3C,
	0x00, 0x80, 0x4B, 0x40, 0x85, 0x50, 0x80, 0x3F, 0x40, 0x00, 0x90, 0x42,
	0x3C, 0x85, 0x50, 0x80, 0x42, 0x40, 0x00, 0x90, 0x49, 0x3C, 0x85, 0x50,
	0x80, 0x49, 0x40, 0x00, 0x90, 0x4B, 0x3C, 0x85, 0x50, 0x90, 0x3F, 0x3C,
	0x00, 0x80, 0x4B, 0x40, 0x85, 0x50, 0x80, 0x3F, 0x40, 0x00, 0x90, 0x42,
	0x3C, 0x85, 0x50, 0x80, 0x42, 0x40, 0x00, 0x90, 0x49, 0x3C, 0x85, 0x50,
	0x80, 0x49, 0x40, 0x00, 0x90, 0x4B, 0x3C, 0x85, 0x50, 0x90, 0x3F, 0x3C,
	0x00, 0x80, 0x4B, 0x40, 0x85, 0x50, 0x80, 0x3F, 0x40, 0x00, 0x90, 0x42,
	0x3C, 0x85, 0x50, 0x80, 0x42, 0x40, 0x00, 0x90, 0x49, 0x3C, 0x85, 0x50,
	0x80, 0x49, 0x40, 0x00, 0x90, 0x4B, 0x3C, 0x85, 0x50, 0x80, 0x4B, 0x40,
	0xC7, 0x20, 0x90, 0x3F, 0x3C, 0x82, 0x68, 0x80, 0x3F, 0x40, 0x00, 0x90,
	0x42, 0x3C, 0x82, 0x68, 0x80, 0x42, 0x40, 0x00, 0x90, 0x49, 0x3C, 0x82,
	0x68, 0x80, 0x49, 0x40, 0x00, 0x90, 0x4B, 0x3C, 0x82, 0x68, 0x90, 0x3F,
	0x3C, 0x00, 0x80, 0x4B, 0x40, 0x82, 0x68, 0x80, 0x3F, 0x40, 0x00, 0x90,
	0x42, 0x3C, 0x82, 0x68, 0x80, 0x42, 0x40, 0x00, 0x90, 0x49, 0x3C, 0x82,
	0x68, 0x80, 0x49, 0x40, 0x00, 0x90, 0x4B, 0x3C, 0x82, 0x68, 0x90, 0x3F,
	0x3C, 0x00, 0x80, 0x4B, 0x40, 0x82, 0x68, 0x80, 0x3F, 0x40, 0x00, 0x90,
	0x42, 0x3C, 0x82, 0x68, 0x80, 0x42, 0x40, 0x00, 0x90, 0x49, 0x3C, 0x82,
	0x68, 0x80, 0x49, 0x40, 0x00, 0x90, 0x4B, 0x3C, 0x82, 0x68, 0x90, 0x3F,
	0x3C, 0x00, 0x80, 0x4B, 0x40, 0x82, 0x68, 0x80, 0x3F, 0x40, 0x00, 0x90,
	0x42, 0x3C, 0x82, 0x68, 0x80, 0x42, 0x40, 0x00, 0x90, 0x49, 0x3C, 0x82,
	0x68, 0x80, 0x49, 0x40, 0x00, 0x90, 0x4B, 0x3C, 0x82, 0x68, 0x90, 0x3F,
	0x3C, 0x00, 0x80, 0x4B, 0x40, 0x82, 0x68, 0x80, 0x3F, 0x40, 0x00, 0x90,
	0x42, 0x3C, 0x82, 0x68, 0x80, 0x42, 0x40, 0x00, 0x90, 0x49, 0x3C, 0x82,
	0x68, 0x80, 0x49, 0x40, 0x00, 0x90, 0x4B, 0x3C, 0x82, 0x68, 0x90, 0x3F,
	0x3C, 0x00, 0x80, 0x4B, 0x40, 0x82, 0x68, 0x80, 0x3F, 0x40, 0x00, 0x90,
	0x42, 0x3C, 0x82, 0x68, 0x80, 0x42, 0x40, 0x00, 0x90, 0x49, 0x3C, 0x82,
	0x68, 0x80, 0x49, 0x40, 0x00, 0x90, 0x4B, 0x3C, 0x82, 0x68, 0x90, 0x3F,
	0x3C, 0x00, 0x80, 0x4B, 0x40, 0x82, 0x68, 0x80, 0x3F, 0x40, 0x00, 0x90,
	0x42, 0x3C, 0x82, 0x68, 0x80, 0x42, 0x40, 0x00, 0x90, 0x49, 0x3C, 0x82,
	0x68, 0x80, 0x49, 0x40, 0x00, 0x90, 0x4B, 0x3C, 0x82, 0x68, 0x90, 0x3F,
	0x3C, 0x00, 0x80, 0x4B, 0x40, 0x82, 0x68, 0x80, 0x3F, 0x40, 0x00, 0x90,
	0x42, 0x3C, 0x82, 0x68, 0x80, 0x42, 0x40, 0x00, 0x90, 0x46, 0x3C, 0x82,
	0x68, 0x80, 0x46, 0x40, 0x00, 0x90, 0x4B, 0x3C, 0x82, 0x68, 0x90, 0x3F,
	0x3C, 0x00, 0x80, 0x4B, 0x40, 0x82, 0x68, 0x80, 0x3F, 0x40, 0x00, 0x90,
	0x42, 0x3C, 0x82, 0x68, 0x80, 0x42, 0x40, 0x00, 0x90, 0x46, 0x3C, 0x82,
	0x68, 0x80, 0x46, 0x40, 0x00, 0x90, 0x4B, 0x3C, 0x82, 0x68, 0x90, 0x3F,
	0x3C, 0x00, 0x80, 0x4B, 0x40, 0x82, 0x68, 0x80, 0x3F, 0x40, 0x00, 0x90,
	0x42, 0x3C, 0x82, 0x68, 0x80, 0x42, 0x40, 0x00, 0x90, 0x46, 0x3C, 0x82,
	0x68, 0x80, 0x46, 0x40, 0x00, 0x90, 0x4B, 0x3C, 0x82, 0x68, 0x90, 0x3F,
	0x3C, 0x00, 0x80, 0x4B, 0x40, 0x82, 0x68, 0x80, 0x3F, 0x40, 0x00, 0x90,
	0x42, 0x3C, 0x82, 0x68, 0x80, 0x42, 0x40, 0x00, 0x90, 0x46, 0x3C, 0x82,
	0x68, 0x80, 0x46, 0x40, 0x00, 0x90, 0x4B, 0x3C, 0x82, 0x68, 0x90, 0x3F,
	0x3C, 0x00, 0x80, 0x4B, 0x40, 0x82, 0x68, 0x80, 0x3F, 0x40, 0x00, 0x90,
	0x42, 0x3C, 0x82, 0x68, 0x80, 0x42, 0x40, 0x00, 0x90, 0x46, 0x3C, 0x82,
	0x68, 0x80, 0x46, 0x40, 0x00, 0x90, 0x4B, 0x3C, 0x82, 0x68, 0x90, 0x3F,
	0x3C, 0x00, 0x80, 0x4B, 0x40, 0x82, 0x68, 0x80, 0x3F, 0x40, 0x00, 0x90,
	0x42, 0x3C, 0x82, 0x68, 0x80, 0x42, 0x40, 0x00, 0x90, 0x46, 0x3C, 0x82,
	0x68, 0x80, 0x46, 0x40, 0x00, 0x90, 0x4B, 0x3C, 0x82, 0x68, 0x90, 0x3F,
	0x3C, 0x00, 0x80, 0x4B, 0x40, 0x82, 0x68, 0x80, 0x3F, 0x40, 0x00, 0x90,
	0x42, 0x3C, 0x82, 0x68, 0x80, 0x42, 0x40, 0x00, 0x90, 0x46, 0x3C, 0x82,
	0x68, 0x80, 0x46, 0x40, 0x00, 0x90, 0x4B, 0x3C, 0x82, 0x68, 0x90, 0x3F,
	0x3C, 0x00, 0x80, 0x4B, 0x40, 0x82, 0x68, 0x80, 0x3F, 0x40, 0x00, 0x90,
	0x42, 0x3C, 0x82, 0x68, 0x80, 0x42, 0x40, 0x00, 0x90, 0x46, 0x3C, 0x82,
	0x68, 0x80, 0x46, 0x40, 0x00, 0x90, 0x4B, 0x3C, 0x82, 0x68, 0x90, 0x3F,
	0x3C, 0x00, 0x80, 0x4B, 0x40, 0x82, 0x68, 0x80, 0x3F, 0x40, 0x00, 0x90,
	0x42, 0x3C, 0x82, 0x68, 0x80, 0x42, 0x40, 0x00, 0x90, 0x49, 0x3C, 0x82,
	0x68, 0x80, 0x49, 0x40, 0x00, 0x90, 0x4B, 0x3C, 0x82, 0x68, 0x90, 0x3F,
	0x3C, 0x00, 0x80, 0x4B, 0x40, 0x82, 0x68, 0x80, 0x3F, 0x40, 0x00, 0x90,
	0x42, 0x3C, 0x82, 0x68, 0x80, 0x42, 0x40, 0x00, 0x90, 0x49, 0x3C, 0x82,
	0x68, 0x80, 0x49, 0x40, 0x00, 0x90, 0x4B, 0x3C, 0x82, 0x68, 0x90, 0x3F,
	0x3C, 0x00, 0x80, 0x4B, 0x40, 0x82, 0x68, 0x80, 0x3F, 0x40, 0x00, 0x90,
	0x42, 0x3C, 0x82, 0x68, 0x80, 0x42, 0x40, 0x00, 0x90, 0x49, 0x3C, 0x82,
	0x68, 0x80, 0x49, 0x40, 0x00, 0x90, 0x4B, 0x3C, 0x82, 0x68, 0x90, 0x3F,
	0x3C, 0x00, 0x80, 0x4B, 0x40, 0x82, 0x68, 0x80, 0x3F, 0x40, 0x00, 0x90,
	0x42, 0x3C, 0x82, 0x68, 0x80, 0x42, 0x40, 0x00, 0x90, 0x49, 0x3C, 0x82,
	0x68, 0x80, 0x49, 0x40, 0x00, 0x90, 0x4B, 0x3C, 0x82, 0x68, 0x90, 0x3F,
	0x3C, 0x00, 0x80, 0x4B, 0x40, 0x82, 0x68, 0x80, 0x3F, 0x40, 0x00, 0x90,
	0x42, 0x3C, 0x82, 0x68, 0x80, 0x42, 0x40, 0x00, 0x90, 0x49, 0x3C, 0x82,
	0x68, 0x80, 0x49, 0x40, 0x00, 0x90, 0x4B, 0x3C, 0x82, 0x68, 0x90, 0x3F,
	0x3C, 0x00, 0x80, 0x4B, 0x40, 0x82, 0x68, 0x80, 0x3F, 0x40, 0x00, 0x90,
	0x42, 0x3C, 0x82, 0x68, 0x80, 0x42, 0x40, 0x00, 0x90, 0x49, 0x3C, 0x82,
	0x68, 0x80, 0x49, 0x40, 0x00, 0x90, 0x4B, 0x3C, 0x82, 0x68, 0x90, 0x3F,
	0x3C, 0x00, 0x80, 0x4B, 0x40, 0x82, 0x68, 0x80, 0x3F, 0x40, 0x00, 0x90,
	0x42, 0x3C, 0x82, 0x68, 0x80, 0x42, 0x40, 0x00, 0x90, 0x49, 0x3C, 0x82,
	0x68, 0x80, 0x49, 0x40, 0x00, 0x90, 0x4B, 0x3C, 0x82, 0x68, 0x90, 0x3F,
	0x3C, 0x00, 0x80, 0x4B, 0x40, 0x82, 0x68, 0x80, 0x3F, 0x40, 0x00, 0x90,
	0x42, 0x3C, 0x82, 0x68, 0x80, 0x42, 0x40, 0x00, 0x90, 0x49, 0x3C, 0x82,
	0x68, 0x80, 0x49, 0x40, 0x00, 0x90, 0x4B, 0x3C, 0x82, 0x68, 0x90, 0x3F,
	0x3C, 0x00, 0x80, 0x4B, 0x40, 0x82, 0x68, 0x80, 0x3F, 0x40, 0x00, 0x90,
	0x42, 0x3C, 0x82, 0x68, 0x80, 0x42, 0x40, 0x00, 0x90, 0x46, 0x3C, 0x82,
	0x68, 0x80, 0x46, 0x40, 0x00, 0x90, 0x4B, 0x3C, 0x82, 0x68, 0x90, 0x3F,
	0x3C, 0x00, 0x80, 0x4B, 0x40, 0x82, 0x68, 0x80, 0x3F, 0x40, 0x00, 0x90,
	0x42, 0x3C, 0x82, 0x68, 0x80, 0x42, 0x40, 0x00, 0x90, 0x46, 0x3C, 0x82,
	0x68, 0x80, 0x46, 0x40, 0x00, 0x90, 0x4B, 0x3C, 0x82, 0x68, 0x90, 0x3F,
	0x3C, 0x00, 0x80, 0x4B, 0x40, 0x82, 0x68, 0x80, 0x3F, 0x40, 0x00, 0x90,
	0x42, 0x3C, 0x82, 0x68, 0x80, 0x42, 0x40, 0x00, 0x90, 0x46, 0x3C, 0x82,
	0x68, 0x80, 0x46, 0x40, 0x00, 0x90, 0x4B, 0x3C, 0x82, 0x68, 0x90, 0x3F,
	0x3C, 0x00, 0x80, 0x4B, 0x40, 0x82, 0x68, 0x80, 0x3F, 0x40, 0x00, 0x90,
	0x42, 0x3C, 0x82, 0x68, 0x80, 0x42, 0x40, 0x00, 0x90, 0x46, 0x3C, 0x82,
	0x68, 0x80, 0x46, 0x40, 0x00, 0x90, 0x4B, 0x3C, 0x82, 0x68, 0x90, 0x3F,
	0x3C, 0x00, 0x80, 0x4B, 0x40, 0x82, 0x68, 0x80, 0x3F, 0x40, 0x00, 0x90,
	0x42, 0x3C, 0x82, 0x68, 0x80, 0x42, 0x40, 0x00, 0x90, 0x46, 0x3C, 0x82,
	0x68, 0x80, 0x46, 0x40, 0x00, 0x90, 0x4B, 0x3C, 0x82, 0x68, 0x90, 0x3F,
	0x3C, 0x00, 0x80, 0x4B, 0x40, 0x82, 0x68, 0x80, 0x3F, 0x40, 0x00, 0x90,
	0x42, 0x3C, 0x82, 0x68, 0x80, 0x42, 0x40, 0x00, 0x90, 0x46, 0x3C, 0x82,
	0x68, 0x80, 0x46, 0x40, 0x00, 0x90, 0x4B, 0x3C, 0x82, 0x68, 0x90, 0x3F,
	0x3C, 0x00, 0x80, 0x4B, 0x40, 0x82, 0x68, 0x80, 0x3F, 0x40, 0x00, 0x90,
	0x42, 0x3C, 0x82, 0x68, 0x80, 0x42, 0x40, 0x00, 0x90, 0x46, 0x3C, 0x82,
	0x68, 0x80, 0x46, 0x40, 0x00, 0x90, 0x4B, 0x3C, 0x82, 0x68, 0x90, 0x3F,
	0x3C, 0x00, 0x80, 0x4B, 0x40, 0x82, 0x68, 0x80, 0x3F, 0x40, 0x00, 0x90,
	0x42, 0x3C, 0x82, 0x68, 0x80, 0x42, 0x40, 0x00, 0x90, 0x46, 0x3C, 0x82,
	0x68, 0x80, 0x46, 0x40, 0x00, 0x90, 0x4B, 0x3C, 0x82, 0x68, 0x90, 0x3F,
	0x3C, 0x00, 0x80, 0x4B, 0x40, 0x82, 0x68, 0x80, 0x3F, 0x40, 0x00, 0x90,
	0x42, 0x3C, 0x82, 0x68, 0x80, 0x42, 0x40, 0x00, 0x90, 0x49, 0x3C, 0x82,
	0x68, 0x80, 0x49, 0x40, 0x00, 0x90, 0x4B, 0x3C, 0x82, 0x68, 0x90, 0x3F,
	0x3C, 0x00, 0x80, 0x4B, 0x40, 0x82, 0x68, 0x80, 0x3F, 0x40, 0x00, 0x90,
	0x42, 0x3C, 0x82, 0x68, 0x80, 0x42, 0x40, 0x00, 0x90, 0x49, 0x3C, 0x82,
	0x68, 0x80, 0x49, 0x40, 0x00, 0x90, 0x4B, 0x3C, 0x82, 0x68, 0x90, 0x3F,
	0x3C, 0x00, 0x80, 0x4B, 0x40, 0x82, 0x68, 0x80, 0x3F, 0x40, 0x00, 0x90,
	0x42, 0x3C, 0x82, 0x68, 0x80, 0x42, 0x40, 0x00, 0x90, 0x49, 0x3C, 0x82,
	0x68, 0x80, 0x49, 0x40, 0x00, 0x90, 0x4B, 0x3C, 0x82, 0x68, 0x90, 0x3F,
	0x3C, 0x00, 0x80, 0x4B, 0x40, 0x82, 0x68, 0x80, 0x3F, 0x40, 0x00, 0x90,
	0x42, 0x3C, 0x82, 0x68, 0x80, 0x42, 0x40, 0x00, 0x90, 0x49, 0x3C, 0x82,
	0x68, 0x80, 0x49, 0x40, 0x00, 0x90, 0x4B, 0x3C, 0x82, 0x68, 0x90, 0x3F,
	0x3C, 0x00, 0x80, 0x4B, 0x40, 0x82, 0x68, 0x80, 0x3F, 0x40, 0x00, 0x90,
	0x42, 0x3C, 0x82, 0x68, 0x80, 0x42, 0x40, 0x00, 0x90, 0x49, 0x3C, 0x82,
	0x68, 0x80, 0x49, 0x40, 0x00, 0x90, 0x4B, 0x3C, 0x82, 0x68, 0x90, 0x3F,
	0x3C, 0x00, 0x80, 0x4B, 0x40, 0x82, 0x68, 0x80, 0x3F, 0x40, 0x00, 0x90,
	0x42, 0x3C, 0x82, 0x68, 0x80, 0x42, 0x40, 0x00, 0x90, 0x49, 0x3C, 0x82,
	0x68, 0x80, 0x49, 0x40, 0x00, 0x90, 0x4B, 0x3C, 0x82, 0x68, 0x90, 0x3F,
	0x3C, 0x00, 0x80, 0x4B, 0x40, 0x82, 0x68, 0x80, 0x3F, 0x40, 0x00, 0x90,
	0x42, 0x3C, 0x82, 0x68, 0x80, 0x42, 0x40, 0x00, 0x90, 0x49, 0x3C, 0x82,
	0x68, 0x80, 0x49, 0x40, 0x00, 0x90, 0x4B, 0x3C, 0x82, 0x68, 0x90, 0x3F,
	0x3C, 0x00, 0x80, 0x4B, 0x40, 0x82, 0x68, 0x80, 0x3F, 0x40, 0x00, 0x90,
	0x42, 0x3C, 0x82, 0x68, 0x80, 0x42, 0x40, 0x00, 0x90, 0x49, 0x3C, 0x82,
	0x68, 0x80, 0x49, 0x40, 0x00, 0x90, 0x4B, 0x3C, 0x82, 0x68, 0x90, 0x3F,
	0x3C, 0x00, 0x80, 0x4B, 0x40, 0x82, 0x68, 0x80, 0x3F, 0x40, 0x00, 0x90,
	0x42, 0x3C, 0x82, 0x68, 0x80, 0x42, 0x40, 0x00, 0x90, 0x46, 0x3C, 0x82,
	0x68, 0x80, 0x46, 0x40, 0x00, 0x90, 0x4B, 0x3C, 0x82, 0x68, 0x90, 0x3F,
	0x3C, 0x00, 0x80, 0x4B, 0x40, 0x82, 0x68, 0x80, 0x3F, 0x40, 0x00, 0x90,
	0x42, 0x3C, 0x82, 0x68, 0x80, 0x42, 0x40, 0x00, 0x90, 0x46, 0x3C, 0x82,
	0x68, 0x80, 0x46, 0x40, 0x00, 0x90, 0x4B, 0x3C, 0x82, 0x68, 0x90, 0x3F,
	0x3C, 0x00, 0x80, 0x4B, 0x40, 0x82, 0x68, 0x80, 0x3F, 0x40, 0x00, 0x90,
	0x42, 0x3C, 0x82, 0x68, 0x80, 0x42, 0x40, 0x00, 0x90, 0x46, 0x3C, 0x82,
	0x68, 0x80, 0x46, 0x40, 0x00, 0x90, 0x4B, 0x3C, 0x82, 0x68, 0x90, 0x3F,
	0x3C, 0x00, 0x80, 0x4B, 0x40, 0x82, 0x68, 0x80, 0x3F, 0x40, 0x00, 0x90,
	0x42, 0x3C, 0x82, 0x68, 0x80, 0x42, 0x40, 0x00, 0x90, 0x46, 0x3C, 0x82,
	0x68, 0x80, 0x46, 0x40, 0x00, 0x90, 0x4B, 0x3C, 0x82, 0x68, 0x90, 0x3F,
	0x3C, 0x00, 0x80, 0x4B, 0x40, 0x82, 0x68, 0x80, 0x3F, 0x40, 0x00, 0x90,
	0x42, 0x3C, 0x82, 0x68, 0x80, 0x42, 0x40, 0x00, 0x90, 0x46, 0x3C, 0x82,
	0x68, 0x80, 0x46, 0x40, 0x00, 0x90, 0x4B, 0x3C, 0x82, 0x68, 0x90, 0x3F,
	0x3C, 0x00, 0x80, 0x4B, 0x40, 0x82, 0x68, 0x80, 0x3F, 0x40, 0x00, 0x90,
	0x42, 0x3C, 0x82, 0x68, 0x80, 0x42, 0x40, 0x00, 0x90, 0x46, 0x3C, 0x82,
	0x68, 0x80, 0x46, 0x40, 0x00, 0x90, 0x4B, 0x3C, 0x82, 0x68, 0x90, 0x3F,
	0x3C, 0x00, 0x80, 0x4B, 0x40, 0x82, 0x68, 0x80, 0x3F, 0x40, 0x00, 0x90,
	0x42, 0x3C, 0x82, 0x68, 0x80, 0x42, 0x40, 0x00, 0x90, 0x46, 0x3C, 0x82,
	0x68, 0x80, 0x46, 0x40, 0x00, 0x90, 0x4B, 0x3C, 0x82, 0x68, 0x90, 0x3F,
	0x3C, 0x00, 0x80, 0x4B, 0x40, 0x82, 0x68, 0x80, 0x3F, 0x40, 0x00, 0x90,
	0x42, 0x3C, 0x82, 0x68, 0x80, 0x42, 0x40, 0x00, 0x90, 0x46, 0x3C, 0x82,
	0x68, 0x80, 0x46, 0x40, 0x00, 0x90, 0x4B, 0x3C, 0x82, 0x68, 0x90, 0x3F,
	0x3C, 0x00, 0x80, 0x4B, 0x40, 0x82, 0x68, 0x80, 0x3F, 0x40, 0x00, 0x90,
	0x42, 0x3C, 0x82, 0x68, 0x80, 0x42, 0x40, 0x00, 0x90, 0x49, 0x3C, 0x82,
	0x68, 0x80, 0x49, 0x40, 0x00, 0x90, 0x4B, 0x3C, 0x82, 0x68, 0x90, 0x3F,
	0x3C, 0x00, 0x80, 0x4B, 0x40, 0x82, 0x68, 0x80, 0x3F, 0x40, 0x00, 0x90,
	0x42, 0x3C, 0x82, 0x68, 0x80, 0x42, 0x40, 0x00, 0x90, 0x49, 0x3C, 0x82,
	0x68, 0x80, 0x49, 0x40, 0x00, 0x90, 0x4B, 0x3C, 0x82, 0x68, 0x90, 0x3F,
	0x3C, 0x00, 0x80, 0x4B, 0x40, 0x82, 0x68, 0x80, 0x3F, 0x40, 0x00, 0x90,
	0x42, 0x3C, 0x82, 0x68, 0x80, 0x42, 0x40, 0x00, 0x90, 0x49, 0x3C, 0x82,
	0x68, 0x80, 0x49, 0x40, 0x00, 0x90, 0x4B, 0x3C, 0x82, 0x68, 0x90, 0x3F,
	0x3C, 0x00, 0x80, 0x4B, 0x40, 0x82, 0x68, 0x80, 0x3F, 0x40, 0x00, 0x90,
	0x42, 0x3C, 0x82, 0x68, 0x80, 0x42, 0x40, 0x00, 0x90, 0x49, 0x3C, 0x82,
	0x68, 0x80, 0x49, 0x40, 0x00, 0x90, 0x4B, 0x3C, 0x82, 0x68, 0x90, 0x3F,
	0x3C, 0x00, 0x80, 0x4B, 0x40, 0x82, 0x68, 0x80, 0x3F, 0x40, 0x00, 0x90,
	0x42, 0x3C, 0x82, 0x68, 0x80, 0x42, 0x40, 0x00, 0x90, 0x49, 0x3C, 0x82,
	0x68, 0x80, 0x49, 0x40, 0x00, 0x90, 0x4B, 0x3C, 0x82, 0x68, 0x90, 0x3F,
	0x3C, 0x00, 0x80, 0x4B, 0x40, 0x82, 0x68, 0x80, 0x3F, 0x40, 0x00, 0x90,
	0x42, 0x3C, 0x82, 0x68, 0x80, 0x42, 0x40, 0x00, 0x90, 0x49, 0x3C, 0x82,
	0x68, 0x80, 0x49, 0x40, 0x00, 0x90, 0x4B, 0x3C, 0x82, 0x68, 0x90, 0x3F,
	0x3C, 0x00, 0x80, 0x4B, 0x40, 0x82, 0x68, 0x80, 0x3F, 0x40, 0x00, 0x90,
	0x42, 0x3C, 0x82, 0x68, 0x80, 0x42, 0x40, 0x00, 0x90, 0x49, 0x3C, 0x82,
	0x68, 0x80, 0x49, 0x40, 0x00, 0x90, 0x4B, 0x3C, 0x82, 0x68, 0x90, 0x3F,
	0x3C, 0x00, 0x80, 0x4B, 0x40, 0x82, 0x68, 0x80, 0x3F, 0x40, 0x00, 0x90,
	0x42, 0x3C, 0x82, 0x68, 0x80, 0x42, 0x40, 0x00, 0x90, 0x49, 0x3C, 0x82,
	0x68, 0x80, 0x49, 0x40, 0x00, 0x90, 0x4B, 0x3C, 0x82, 0x68, 0x90, 0x3F,
	0x3C, 0x00, 0x80, 0x4B, 0x40, 0x82, 0x68, 0x80, 0x3F, 0x40, 0x00, 0x90,
	0x42, 0x3C, 0x82, 0x68, 0x80, 0x42, 0x40, 0x00, 0x90, 0x46, 0x3C, 0x82,
	0x68, 0x80, 0x46, 0x40, 0x00, 0x90, 0x4B, 0x3C, 0x82, 0x68, 0x90, 0x3F,
	0x3C, 0x00, 0x80, 0x4B, 0x40, 0x82, 0x68, 0x80, 0x3F, 0x40, 0x00, 0x90,
	0x42, 0x3C, 0x82, 0x68, 0x80, 0x42, 0x40, 0x00, 0x90, 0x46, 0x3C, 0x82,
	0x68, 0x80, 0x46, 0x40, 0x00, 0x90, 0x4B, 0x3C, 0x82, 0x68, 0x90, 0x3F,
	0x3C, 0x00, 0x80, 0x4B, 0x40, 0x82, 0x68, 0x80, 0x3F, 0x40, 0x00, 0x90,
	0x42, 0x3C, 0x82, 0x68, 0x80, 0x42, 0x40, 0x00, 0x90, 0x46, 0x3C, 0x82,
	0x68, 0x80, 0x46, 0x40, 0x00, 0x90, 0x4B, 0x3C, 0x82, 0x68, 0x90, 0x3F,
	0x3C, 0x00, 0x80, 0x4B, 0x40, 0x82, 0x68, 0x80, 0x3F, 0x40, 0x00, 0x90,
	0x42, 0x3C, 0x82, 0x68, 0x80, 0x42, 0x40, 0x00, 0x90, 0x46, 0x3C, 0x82,
	0x68, 0x80, 0x46, 0x40, 0x00, 0x90, 0x4B, 0x3C, 0x82, 0x68, 0x90, 0x3F,
	0x3C, 0x00, 0x80, 0x4B, 0x40, 0x82, 0x68, 0x80, 0x3F, 0x40, 0x00, 0x90,
	0x42, 0x3C, 0x82, 0x68, 0x80, 0x42, 0x40, 0x00, 0x90, 0x46, 0x3C, 0x82,
	0x68, 0x80, 0x46, 0x40, 0x00, 0x90, 0x4B, 0x3C, 0x82, 0x68, 0x90, 0x3F,
	0x3C, 0x00, 0x80, 0x4B, 0x40, 0x82, 0x68, 0x80, 0x3F, 0x40, 0x00, 0x90,
	0x42, 0x3C, 0x82, 0x68, 0x80, 0x42, 0x40, 0x00, 0x90, 0x46, 0x3C, 0x82,
	0x68, 0x80, 0x46, 0x40, 0x00, 0x90, 0x4B, 0x3C, 0x82, 0x68, 0x90, 0x3F,
	0x3C, 0x00, 0x80, 0x4B, 0x40, 0x82, 0x68, 0x80, 0x3F, 0x40, 0x00, 0x90,
	0x42, 0x3C, 0x82, 0x68, 0x80, 0x42, 0x40, 0x00, 0x90, 0x46, 0x3C, 0x82,
	0x68, 0x80, 0x46, 0x40, 0x00, 0x90, 0x4B, 0x3C, 0x82, 0x68, 0x90, 0x3F,
	0x3C, 0x00, 0x80, 0x4B, 0x40, 0x82, 0x68, 0x80, 0x3F, 0x40, 0x00, 0x90,
	0x42, 0x3C, 0x82, 0x68, 0x80, 0x42, 0x40, 0x00, 0x90, 0x46, 0x3C, 0x82,
	0x68, 0x80, 0x46, 0x40, 0x00, 0x90, 0x4B, 0x3C, 0x82, 0x68, 0x90, 0x3F,
	0x3C, 0x00, 0x80, 0x4B, 0x40, 0x82, 0x68, 0x80, 0x3F, 0x40, 0x00, 0x90,
	0x42, 0x3C, 0x82, 0x68, 0x80, 0x42, 0x40, 0x00, 0x90, 0x49, 0x3C, 0x82,
	0x68, 0x80, 0x49, 0x40, 0x00, 0x90, 0x4B, 0x3C, 0x82, 0x68, 0x90, 0x3F,
	0x3C, 0x00, 0x80, 0x4B, 0x40, 0x82, 0x68, 0x80, 0x3F, 0x40, 0x00, 0x90,
	0x42, 0x3C, 0x82, 0x68, 0x80, 0x42, 0x40, 0x00, 0x90, 0x49, 0x3C, 0x82,
	0x68, 0x80, 0x49, 0x40, 0x00, 0x90, 0x4B, 0x3C, 0x82, 0x68, 0x90, 0x3F,
	0x3C, 0x00, 0x80, 0x4B, 0x40, 0x82, 0x68, 0x80, 0x3F, 0x40, 0x00, 0x90,
	0x42, 0x3C, 0x82, 0x68, 0x80, 0x42, 0x40, 0x00, 0x90, 0x49, 0x3C, 0x82,
	0x68, 0x80, 0x49, 0x40, 0x00, 0x90, 0x4B, 0x3C, 0x82, 0x68, 0x90, 0x3F,
	0x3C, 0x00, 0x80, 0x4B, 0x40, 0x82, 0x68, 0x80, 0x3F, 0x40, 0x00, 0x90,
	0x42, 0x3C, 0x82, 0x68, 0x80, 0x42, 0x40, 0x00, 0x90, 0x49, 0x3C, 0x82,
	0x68, 0x80, 0x49, 0x40, 0x00, 0x90, 0x4B, 0x3C, 0x82, 0x68, 0x90, 0x3F,
	0x3C, 0x00, 0x80, 0x4B, 0x40, 0x82, 0x68, 0x80, 0x3F, 0x40, 0x00, 0x90,
	0x42, 0x3C, 0x82, 0x68, 0x80, 0x42, 0x40, 0x00, 0x90, 0x49, 0x3C, 0x82,
	0x68, 0x80, 0x49, 0x40, 0x00, 0x90, 0x4B, 0x3C, 0x82, 0x68, 0x90, 0x3F,
	0x3C, 0x00, 0x80, 0x4B, 0x40, 0x82, 0x68, 0x80, 0x3F, 0x40, 0x00, 0x90,
	0x42, 0x3C, 0x82, 0x68, 0x80, 0x42, 0x40, 0x00, 0x90, 0x49, 0x3C, 0x82,
	0x68, 0x80, 0x49, 0x40, 0x00, 0x90, 0x4B, 0x3C, 0x82, 0x68, 0x90, 0x3F,
	0x3C, 0x00, 0x80, 0x4B, 0x40, 0x82, 0x68, 0x80, 0x3F, 0x40, 0x00, 0x90,
	0x42, 0x3C, 0x82, 0x68, 0x80, 0x42, 0x40, 0x00, 0x90, 0x49, 0x3C, 0x82,
	0x68, 0x80, 0x49, 0x40, 0x00, 0x90, 0x4B, 0x3C, 0x82, 0x68, 0x90, 0x3F,
	0x3C, 0x00, 0x80, 0x4B, 0x40, 0x82, 0x68, 0x80, 0x3F, 0x40, 0x00, 0x90,
	0x42, 0x3C, 0x82, 0x68, 0x80, 0x42, 0x40, 0x00, 0x90, 0x49, 0x3C, 0x82,
	0x68, 0x80, 0x49, 0x40, 0x00, 0x90, 0x4B, 0x3C, 0x82, 0x68, 0x90, 0x3F,
	0x3C, 0x00, 0x80, 0x4B, 0x40, 0x82, 0x68, 0x80, 0x3F, 0x40, 0x00, 0x90,
	0x42, 0x3C, 0x82, 0x68, 0x80, 0x42, 0x40, 0x00, 0x90, 0x46, 0x3C, 0x82,
	0x68, 0x80, 0x46, 0x40, 0x00, 0x90, 0x4B, 0x3C, 0x82, 0x68, 0x90, 0x3F,
	0x3C, 0x00, 0x80, 0x4B, 0x40, 0x82, 0x68, 0x80, 0x3F, 0x40, 0x00, 0x90,
	0x42, 0x3C, 0x82, 0x68, 0x80, 0x42, 0x40, 0x00, 0x90, 0x46, 0x3C, 0x82,
	0x68, 0x80, 0x46, 0x40, 0x00, 0x90, 0x4B, 0x3C, 0x82, 0x68, 0x90, 0x3F,
	0x3C, 0x00, 0x80, 0x4B, 0x40, 0x82, 0x68, 0x80, 0x3F, 0x40, 0x00, 0x90,
	0x42, 0x3C, 0x82, 0x68, 0x80, 0x42, 0x40, 0x00, 0x90, 0x46, 0x3C, 0x82,
	0x68, 0x80, 0x46, 0x40, 0x00, 0x90, 0x4B, 0x3C, 0x82, 0x68, 0x90, 0x3F,
	0x3C, 0x00, 0x80, 0x4B, 0x40, 0x82, 0x68, 0x80, 0x3F, 0x40, 0x00, 0x90,
	0x42, 0x3C, 0x82, 0x68, 0x80, 0x42, 0x40, 0x00, 0x90, 0x46, 0x3C, 0x82,
	0x68, 0x80, 0x46, 0x40, 0x00, 0x90, 0x4B, 0x3C, 0x82, 0x68, 0x90, 0x3F,
	0x3C, 0x00, 0x80, 0x4B, 0x40, 0x82, 0x68, 0x80, 0x3F, 0x40, 0x00, 0x90,
	0x42, 0x3C, 0x82, 0x68, 0x80, 0x42, 0x40, 0x00, 0x90, 0x46, 0x3C, 0x82,
	0x68, 0x80, 0x46, 0x40, 0x00, 0x90, 0x4B, 0x3C, 0x82, 0x68, 0x90, 0x3F,
	0x3C, 0x00, 0x80, 0x4B, 0x40, 0x82, 0x68, 0x80, 0x3F, 0x40, 0x00, 0x90,
	0x42, 0x3C, 0x82, 0x68, 0x80, 0x42, 0x40, 0x00, 0x90, 0x46, 0x3C, 0x82,
	0x68, 0x80, 0x46, 0x40, 0x00, 0x90, 0x4B, 0x3C, 0x82, 0x68, 0x90, 0x3F,
	0x3C, 0x00, 0x80, 0x4B, 0x40, 0x82, 0x68, 0x80, 0x3F, 0x40, 0x00, 0x90,
	0x42, 0x3C, 0x82, 0x68, 0x80, 0x42, 0x40, 0x00, 0x90, 0x46, 0x3C, 0x82,
	0x68, 0x80, 0x46, 0x40, 0x00, 0x90, 0x4B, 0x3C, 0x82, 0x68, 0x90, 0x3F,
	0x3C, 0x00, 0x80, 0x4B, 0x40, 0x82, 0x68, 0x80, 0x3F, 0x40, 0x00, 0x90,
	0x42, 0x3C, 0x82, 0x68, 0x80, 0x42, 0x40, 0x00, 0x90, 0x46, 0x3C, 0x82,
	0x68, 0x80, 0x46, 0x40, 0x00, 0x90, 0x4B, 0x3C, 0x82, 0x68, 0x90, 0x3F,
	0x3C, 0x00, 0x80, 0x4B, 0x40, 0x82, 0x68, 0x80, 0x3F, 0x40, 0x00, 0x90,
	0x42, 0x3C, 0x82, 0x68, 0x80, 0x42, 0x40, 0x00, 0x90, 0x49, 0x3C, 0x82,
	0x68, 0x80, 0x49, 0x40, 0x00, 0x90, 0x4B, 0x3C, 0x82, 0x68, 0x90, 0x3F,
	0x3C, 0x00, 0x80, 0x4B, 0x40, 0x82, 0x68, 0x80, 0x3F, 0x40, 0x00, 0x90,
	0x42, 0x3C, 0x82, 0x68, 0x80, 0x42, 0x40, 0x00, 0x90, 0x49, 0x3C, 0x82,
	0x68, 0x80, 0x49, 0x40, 0x00, 0x90, 0x4B, 0x3C, 0x82, 0x68, 0x90, 0x3F,
	0x3C, 0x00, 0x80, 0x4B, 0x40, 0x82, 0x68, 0x80, 0x3F, 0x40, 0x00, 0x90,
	0x42, 0x3C, 0x82, 0x68, 0x80, 0x42, 0x40, 0x00, 0x90, 0x49, 0x3C, 0x82,
	0x68, 0x80, 0x49, 0x40, 0x00, 0x90, 0x4B, 0x3C, 0x82, 0x68, 0x90, 0x3F,
	0x3C, 0x00, 0x80, 0x4B, 0x40, 0x82, 0x68, 0x80, 0x3F, 0x40, 0x00, 0x90,
	0x42, 0x3C, 0x82, 0x68, 0x80, 0x42, 0x40, 0x00, 0x90, 0x49, 0x3C, 0x82,
	0x68, 0x80, 0x49, 0x40, 0x00, 0x90, 0x4B, 0x3C, 0x82, 0x68, 0x90, 0x3F,
	0x3C, 0x00, 0x80, 0x4B, 0x40, 0x82, 0x68, 0x80, 0x3F, 0x40, 0x00, 0x90,
	0x42, 0x3C, 0x82, 0x68, 0x80, 0x42, 0x40, 0x00, 0x90, 0x49, 0x3C, 0x82,
	0x68, 0x80, 0x49, 0x40, 0x00, 0x90, 0x4B, 0x3C, 0x82, 0x68, 0x90, 0x3F,
	0x3C, 0x00, 0x80, 0x4B, 0x40, 0x82, 0x68, 0x80, 0x3F, 0x40, 0x00, 0x90,
	0x42, 0x3C, 0x82, 0x68, 0x80, 0x42, 0x40, 0x00, 0x90, 0x49, 0x3C, 0x82,
	0x68, 0x80, 0x49, 0x40, 0x00, 0x90, 0x4B, 0x3C, 0x82, 0x68, 0x90, 0x3F,
	0x3C, 0x00, 0x80, 0x4B, 0x40, 0x82, 0x68, 0x80, 0x3F, 0x40, 0x00, 0x90,
	0x42, 0x3C, 0x82, 0x68, 0x80, 0x42, 0x40, 0x00, 0x90, 0x49, 0x3C, 0x82,
	0x68, 0x80, 0x49, 0x40, 0x00, 0x90, 0x4B, 0x3C, 0x82, 0x68, 0x90, 0x3F,
	0x3C, 0x00, 0x80, 0x4B, 0x40, 0x82, 0x68, 0x80, 0x3F, 0x40, 0x00, 0x90,
	0x42, 0x3C, 0x82, 0x68, 0x80, 0x42, 0x40, 0x00, 0x90, 0x49, 0x3C, 0x82,
	0x68, 0x80, 0x49, 0x40, 0x00, 0x90, 0x4B, 0x3C, 0x82, 0x68, 0x90, 0x3F,
	0x3C, 0x00, 0x80, 0x4B, 0x40, 0x82, 0x68, 0x80, 0x3F, 0x40, 0x00, 0x90,
	0x42, 0x3C, 0x82, 0x68, 0x80, 0x42, 0x40, 0x00, 0x90, 0x46, 0x3C, 0x82,
	0x68, 0x80, 0x46, 0x40, 0x00, 0x90, 0x4B, 0x3C, 0x82, 0x68, 0x90, 0x3F,
	0x3C, 0x00, 0x80, 0x4B, 0x40, 0x82, 0x68, 0x80, 0x3F, 0x40, 0x00, 0x90,
	0x42, 0x3C, 0x82, 0x68, 0x80, 0x42, 0x40, 0x00, 0x90, 0x46, 0x3C, 0x82,
	0x68, 0x80, 0x46, 0x40, 0x00, 0x90, 0x4B, 0x3C, 0x82, 0x68, 0x90, 0x3F,
	0x3C, 0x00, 0x80, 0x4B, 0x40, 0x82, 0x68, 0x80, 0x3F, 0x40, 0x00, 0x90,
	0x42, 0x3C, 0x82, 0x68, 0x80, 0x42, 0x40, 0x00, 0x90, 0x46, 0x3C, 0x82,
	0x68, 0x80, 0x46, 0x40, 0x00, 0x90, 0x4B, 0x3C, 0x82, 0x68, 0x90, 0x3F,
	0x3C, 0x00, 0x80, 0x4B, 0x40, 0x82, 0x68, 0x80, 0x3F, 0x40, 0x00, 0x90,
	0x42, 0x3C, 0x82, 0x68, 0x80, 0x42, 0x40, 0x00, 0x90, 0x46, 0x3C, 0x82,
	0x68, 0x80, 0x46, 0x40, 0x00, 0x90, 0x4B, 0x3C, 0x82, 0x68, 0x90, 0x3F,
	0x3C, 0x00, 0x80, 0x4B, 0x40, 0x82, 0x68, 0x80, 0x3F, 0x40, 0x00, 0x90,
	0x42, 0x3C, 0x82, 0x68, 0x80, 0x42, 0x40, 0x00, 0x90, 0x46, 0x3C, 0x82,
	0x68, 0x80, 0x46, 0x40, 0x00, 0x90, 0x4B, 0x3C, 0x82, 0x68, 0x90, 0x3F,
	0x3C, 0x00, 0x80, 0x4B, 0x40, 0x82, 0x68, 0x80, 0x3F, 0x40, 0x00, 0x90,
	0x42, 0x3C, 0x82, 0x68, 0x80, 0x42, 0x40, 0x00, 0x90, 0x46, 0x3C, 0x82,
	0x68, 0x80, 0x46, 0x40, 0x00, 0x90, 0x4B, 0x3C, 0x82, 0x68, 0x90, 0x3F,
	0x3C, 0x00, 0x80, 0x4B, 0x40, 0x82, 0x68, 0x80, 0x3F, 0x40, 0x00, 0x90,
	0x42, 0x3C, 0x82, 0x68, 0x80, 0x42, 0x40, 0x00, 0x90, 0x46, 0x3C, 0x82,
	0x68, 0x80, 0x46, 0x40, 0x00, 0x90, 0x4B, 0x3C, 0x82, 0x68, 0x90, 0x3F,
	0x3C, 0x00, 0x80, 0x4B, 0x40, 0x82, 0x68, 0x80, 0x3F, 0x40, 0x00, 0x90,
	0x42, 0x3C, 0x82, 0x68, 0x80, 0x42, 0x40, 0x00, 0x90, 0x46, 0x3C, 0x82,
	0x68, 0x80, 0x46, 0x40, 0x00, 0x90, 0x4B, 0x3C, 0x82, 0x68, 0x90, 0x3F,
	0x3C, 0x00, 0x80, 0x4B, 0x40, 0x82, 0x68, 0x80, 0x3F, 0x40, 0x00, 0x90,
	0x42, 0x3C, 0x82, 0x68, 0x80, 0x42, 0x40, 0x00, 0x90, 0x49, 0x3C, 0x82,
	0x68, 0x80, 0x49, 0x40, 0x00, 0x90, 0x4B, 0x3C, 0x82, 0x68, 0x90, 0x3F,
	0x3C, 0x00, 0x80, 0x4B, 0x40, 0x82, 0x68, 0x80, 0x3F, 0x40, 0x00, 0x90,
	0x42, 0x3C, 0x82, 0x68, 0x80, 0x42, 0x40, 0x00, 0x90, 0x49, 0x3C, 0x82,
	0x68, 0x80, 0x49, 0x40, 0x00, 0x90, 0x4B, 0x3C, 0x82, 0x68, 0x90, 0x3F,
	0x3C, 0x00, 0x80, 0x4B, 0x40, 0x82, 0x68, 0x80, 0x3F, 0x40, 0x00, 0x90,
	0x42, 0x3C, 0x82, 0x68, 0x80, 0x42, 0x40, 0x00, 0x90, 0x49, 0x3C, 0x82,
	0x68, 0x80, 0x49, 0x40, 0x00, 0x90, 0x4B, 0x3C, 0x82, 0x68, 0x90, 0x3F,
	0x3C, 0x00, 0x80, 0x4B, 0x40, 0x82, 0x68, 0x80, 0x3F, 0x40, 0x00, 0x90,
	0x42, 0x3C, 0x82, 0x68, 0x80, 0x42, 0x40, 0x00, 0x90, 0x49, 0x3C, 0x82,
	0x68, 0x80, 0x49, 0x40, 0x00, 0x90, 0x4B, 0x3C, 0x82, 0x68, 0x90, 0x3F,
	0x3C, 0x00, 0x80, 0x4B, 0x40, 0x82, 0x68, 0x80, 0x3F, 0x40, 0x00, 0x90,
	0x42, 0x3C, 0x82, 0x68, 0x80, 0x42, 0x40, 0x00, 0x90, 0x49, 0x3C, 0x82,
	0x68, 0x80, 0x49, 0x40, 0x00, 0x90, 0x4B, 0x3C, 0x82, 0x68, 0x90, 0x3F,
	0x3C, 0x00, 0x80, 0x4B, 0x40, 0x82, 0x68, 0x80, 0x3F, 0x40, 0x00, 0x90,
	0x42, 0x3C, 0x82, 0x68, 0x80, 0x42, 0x40, 0x00, 0x90, 0x49, 0x3C, 0x82,
	0x68, 0x80, 0x49, 0x40, 0x00, 0x90, 0x4B, 0x3C, 0x82, 0x68, 0x90, 0x3F,
	0x3C, 0x00, 0x80, 0x4B, 0x40, 0x82, 0x68, 0x80, 0x3F, 0x40, 0x00, 0x90,
	0x42, 0x3C, 0x82, 0x68, 0x80, 0x42, 0x40, 0x00, 0x90, 0x49, 0x3C, 0x82,
	0x68, 0x80, 0x49, 0x40, 0x00, 0x90, 0x4B, 0x3C, 0x82, 0x68, 0x90, 0x3F,
	0x3C, 0x00, 0x80, 0x4B, 0x40, 0x82, 0x68, 0x80, 0x3F, 0x40, 0x00, 0x90,
	0x42, 0x3C, 0x82, 0x68, 0x80, 0x42, 0x40, 0x00, 0x90, 0x49, 0x3C, 0x82,
	0x68, 0x80, 0x49, 0x40, 0x00, 0x90, 0x4B, 0x3C, 0x82, 0x68, 0x90, 0x3F,
	0x3C, 0x00, 0x80, 0x4B, 0x40, 0x82, 0x68, 0x80, 0x3F, 0x40, 0x00, 0x90,
	0x42, 0x3C, 0x82, 0x68, 0x80, 0x42, 0x40, 0x00, 0x90, 0x46, 0x3C, 0x82,
	0x68, 0x80, 0x46, 0x40, 0x00, 0x90, 0x4B, 0x3C, 0x82, 0x68, 0x90, 0x3F,
	0x3C, 0x00, 0x80, 0x4B, 0x40, 0x82, 0x68, 0x80, 0x3F, 0x40, 0x00, 0x90,
	0x42, 0x3C, 0x82, 0x68, 0x80, 0x42, 0x40, 0x00, 0x90, 0x46, 0x3C, 0x82,
	0x68, 0x80, 0x46, 0x40, 0x00, 0x90, 0x4B, 0x3C, 0x82, 0x68, 0x90, 0x3F,
	0x3C, 0x00, 0x80, 0x4B, 0x40, 0x82, 0x68, 0x80, 0x3F, 0x40, 0x00, 0x90,
	0x42, 0x3C, 0x82, 0x68, 0x80, 0x42, 0x40, 0x00, 0x90, 0x46, 0x3C, 0x82,
	0x68, 0x80, 0x46, 0x40, 0x00, 0x90, 0x4B, 0x3C, 0x82, 0x68, 0x90, 0x3F,
	0x3C, 0x00, 0x80, 0x4B, 0x40, 0x82, 0x68, 0x80, 0x3F, 0x40, 0x00, 0x90,
	0x42, 0x3C, 0x82, 0x68, 0x80, 0x42, 0x40, 0x00, 0x90, 0x46, 0x3C, 0x82,
	0x68, 0x80, 0x46, 0x40, 0x00, 0x90, 0x4B, 0x3C, 0x82, 0x68, 0x90, 0x3F,
	0x3C, 0x00, 0x80, 0x4B, 0x40, 0x82, 0x68, 0x80, 0x3F, 0x40, 0x00, 0x90,
	0x42, 0x3C, 0x82, 0x68, 0x80, 0x42, 0x40, 0x00, 0x90, 0x46, 0x3C, 0x82,
	0x68, 0x80, 0x46, 0x40, 0x00, 0x90, 0x4B, 0x3C, 0x82, 0x68, 0x90, 0x3F,
	0x3C, 0x00, 0x80, 0x4B, 0x40, 0x82, 0x68, 0x80, 0x3F, 0x40, 0x00, 0x90,
	0x42, 0x3C, 0x82, 0x68, 0x80, 0x42, 0x40, 0x00, 0x90, 0x46, 0x3C, 0x82,
	0x68, 0x80, 0x46, 0x40, 0x00, 0x90, 0x4B, 0x3C, 0x82, 0x68, 0x90, 0x3F,
	0x3C, 0x00, 0x80, 0x4B, 0x40, 0x82, 0x68, 0x80, 0x3F, 0x40, 0x00, 0x90,
	0x42, 0x3C, 0x82, 0x68, 0x80, 0x42, 0x40, 0x00, 0x90, 0x46, 0x3C, 0x82,
	0x68, 0x80, 0x46, 0x40, 0x00, 0x90, 0x4B, 0x3C, 0x82, 0x68, 0x90, 0x3F,
	0x3C, 0x00, 0x80, 0x4B, 0x40, 0x82, 0x68, 0x80, 0x3F, 0x40, 0x00, 0x90,
	0x42, 0x3C, 0x82, 0x68, 0x80, 0x42, 0x40, 0x00, 0x90, 0x46, 0x3C, 0x82,
	0x68, 0x80, 0x46, 0x40, 0x00, 0x90, 0x4B, 0x3C, 0x82, 0x68, 0x90, 0x3F,
	0x3C, 0x00, 0x80, 0x4B, 0x40, 0x82, 0x68, 0x80, 0x3F, 0x40, 0x00, 0x90,
	0x42, 0x3C, 0x82, 0x68, 0x80, 0x42, 0x40, 0x00, 0x90, 0x49, 0x3C, 0x82,
	0x68, 0x80, 0x49, 0x40, 0x00, 0x90, 0x4B, 0x3C, 0x82, 0x68, 0x90, 0x3F,
	0x3C, 0x00, 0x80, 0x4B, 0x40, 0x82, 0x68, 0x80, 0x3F, 0x40, 0x00, 0x90,
	0x42, 0x3C, 0x82, 0x68, 0x80, 0x42, 0x40, 0x00, 0x90, 0x49, 0x3C, 0x82,
	0x68, 0x80, 0x49, 0x40, 0x00, 0x90, 0x4B, 0x3C, 0x82, 0x68, 0x90, 0x3F,
	0x3C, 0x00, 0x80, 0x4B, 0x40, 0x82, 0x68, 0x80, 0x3F, 0x40, 0x00, 0x90,
	0x42, 0x3C, 0x82, 0x68, 0x80, 0x42, 0x40, 0x00, 0x90, 0x49, 0x3C, 0x82,
	0x68, 0x80, 0x49, 0x40, 0x00, 0x90, 0x4B, 0x3C, 0x82, 0x68, 0x90, 0x3F,
	0x3C, 0x00, 0x80, 0x4B, 0x40, 0x82, 0x68, 0x80, 0x3F, 0x40, 0x00, 0x90,
	0x42, 0x3C, 0x82, 0x68, 0x80, 0x42, 0x40, 0x00, 0x90, 0x49, 0x3C, 0x82,
	0x68, 0x80, 0x49, 0x40, 0x00, 0x90, 0x4B, 0x3C, 0x82, 0x68, 0x90, 0x3F,
	0x3C, 0x00, 0x80, 0x4B, 0x40, 0x82, 0x68, 0x80, 0x3F, 0x40, 0x00, 0x90,
	0x42, 0x3C, 0x82, 0x68, 0x80, 0x42, 0x40, 0x00, 0x90, 0x49, 0x3C, 0x82,
	0x68, 0x80, 0x49, 0x40, 0x00, 0x90, 0x4B, 0x3C, 0x82, 0x68, 0x90, 0x3F,
	0x3C, 0x00, 0x80, 0x4B, 0x40, 0x82, 0x68, 0x80, 0x3F, 0x40, 0x00, 0x90,
	0x42, 0x3C, 0x82, 0x68, 0x80, 0x42, 0x40, 0x00, 0x90, 0x49, 0x3C, 0x82,
	0x68, 0x80, 0x49, 0x40, 0x00, 0x90, 0x4B, 0x3C, 0x82, 0x68, 0x90, 0x3F,
	0x3C, 0x00, 0x80, 0x4B, 0x40, 0x82, 0x68, 0x80, 0x3F, 0x40, 0x00, 0x90,
	0x42, 0x3C, 0x82, 0x68, 0x80, 0x42, 0x40, 0x00, 0x90, 0x49, 0x3C, 0x82,
	0x68, 0x80, 0x49, 0x40, 0x00, 0x90, 0x4B, 0x3C, 0x82, 0x68, 0x90, 0x3F,
	0x3C, 0x00, 0x80, 0x4B, 0x40, 0x82, 0x68, 0x80, 0x3F, 0x40, 0x00, 0x90,
	0x42, 0x3C, 0x82, 0x68, 0x80, 0x42, 0x40, 0x00, 0x90, 0x49, 0x3C, 0x82,
	0x68, 0x80, 0x49, 0x40, 0x00, 0x90, 0x4B, 0x3C, 0x82, 0x68, 0x90, 0x3F,
	0x3C, 0x00, 0x80, 0x4B, 0x40, 0x82, 0x68, 0x80, 0x3F, 0x40, 0x00, 0x90,
	0x42, 0x3C, 0x82, 0x68, 0x80, 0x42, 0x40, 0x00, 0x90, 0x46, 0x3C, 0x82,
	0x68, 0x80, 0x46, 0x40, 0x00, 0x90, 0x4B, 0x3C, 0x82, 0x68, 0x90, 0x3F,
	0x3C, 0x00, 0x80, 0x4B, 0x40, 0x82, 0x68, 0x80, 0x3F, 0x40, 0x00, 0x90,
	0x42, 0x3C, 0x82, 0x68, 0x80, 0x42, 0x40, 0x00, 0x90, 0x46, 0x3C, 0x82,
	0x68, 0x80, 0x46, 0x40, 0x00, 0x90, 0x4B, 0x3C, 0x82, 0x68, 0x90, 0x3F,
	0x3C, 0x00, 0x80, 0x4B, 0x40, 0x82, 0x68, 0x80, 0x3F, 0x40, 0x00, 0x90,
	0x42, 0x3C, 0x82, 0x68, 0x80, 0x42, 0x40, 0x00, 0x90, 0x46, 0x3C, 0x82,
	0x68, 0x80, 0x46, 0x40, 0x00, 0x90, 0x4B, 0x3C, 0x82, 0x68, 0x90, 0x3F,
	0x3C, 0x00, 0x80, 0x4B, 0x40, 0x82, 0x68, 0x80, 0x3F, 0x40, 0x00, 0x90,
	0x42, 0x3C, 0x82, 0x68, 0x80, 0x42, 0x40, 0x00, 0x90, 0x46, 0x3C, 0x82,
	0x68, 0x80, 0x46, 0x40, 0x00, 0x90, 0x4B, 0x3C, 0x82, 0x68, 0x90, 0x3F,
	0x3C, 0x00, 0x80, 0x4B, 0x40, 0x82, 0x68, 0x80, 0x3F, 0x40, 0x00, 0x90,
	0x42, 0x3C, 0x82, 0x68, 0x80, 0x42, 0x40, 0x00, 0x90, 0x46, 0x3C, 0x82,
	0x68, 0x80, 0x46, 0x40, 0x00, 0x90, 0x4B, 0x3C, 0x82, 0x68, 0x90, 0x3F,
	0x3C, 0x00, 0x80, 0x4B, 0x40, 0x82, 0x68, 0x80, 0x3F, 0x40, 0x00, 0x90,
	0x42, 0x3C, 0x82, 0x68, 0x80, 0x42, 0x40, 0x00, 0x90, 0x46, 0x3C, 0x82,
	0x68, 0x80, 0x46, 0x40, 0x00, 0x90, 0x4B, 0x3C, 0x82, 0x68, 0x90, 0x3F,
	0x3C, 0x00, 0x80, 0x4B, 0x40, 0x82, 0x68, 0x80, 0x3F, 0x40, 0x00, 0x90,
	0x42, 0x3C, 0x82, 0x68, 0x80, 0x42, 0x40, 0x00, 0x90, 0x46, 0x3C, 0x82,
	0x68, 0x80, 0x46, 0x40, 0x00, 0x90, 0x4B, 0x3C, 0x82, 0x68, 0x90, 0x3F,
	0x3C, 0x00, 0x80, 0x4B, 0x40, 0x82, 0x68, 0x80, 0x3F, 0x40, 0x00, 0x90,
	0x42, 0x3C, 0x82, 0x68, 0x80, 0x42, 0x40, 0x00, 0x90, 0x46, 0x3C, 0x82,
	0x68, 0x80, 0x46, 0x40, 0x00, 0x90, 0x4B, 0x3C, 0x82, 0x5E, 0x80, 0x4B,
	0x40, 0x00, 0xFF, 0x2F, 0x00
};
