/* G:\Alistra\Midi\ArpegFinalMain22.mid (13.08.2019 0:03:37)
   StartOffset(h): 00000000, EndOffset(h): 00000921, Длина(h): 00000922 */

unsigned char rawData[2338] = {
	0x4D, 0x54, 0x68, 0x64, 0x00, 0x00, 0x00, 0x06, 0x00, 0x00, 0x00, 0x01,
	0x03, 0xC0, 0x4D, 0x54, 0x72, 0x6B, 0x00, 0x00, 0x09, 0x0C, 0x00, 0xFF,
	0x58, 0x04, 0x04, 0x02, 0x18, 0x08, 0x00, 0xFF, 0x51, 0x03, 0x06, 0x8A,
	0x1B, 0x00, 0xFF, 0x03, 0x05, 0x54, 0x72, 0x5F, 0x30, 0x00, 0x8F, 0xC7,
	0x20, 0x90, 0x3F, 0x25, 0x85, 0x50, 0x80, 0x3F, 0x40, 0x00, 0x90, 0x3F,
	0x25, 0x85, 0x50, 0x80, 0x3F, 0x40, 0x00, 0x90, 0x3F, 0x25, 0x85, 0x50,
	0x80, 0x3F, 0x40, 0x00, 0x90, 0x3F, 0x3C, 0x85, 0x50, 0x80, 0x3F, 0x40,
	0x00, 0x90, 0x3F, 0x3C, 0x85, 0x50, 0x80, 0x3F, 0x40, 0x00, 0x90, 0x3F,
	0x3C, 0x85, 0x50, 0x80, 0x3F, 0x40, 0x00, 0x90, 0x3F, 0x25, 0x85, 0x50,
	0x80, 0x3F, 0x40, 0x00, 0x90, 0x3F, 0x25, 0x85, 0x50, 0x80, 0x3F, 0x40,
	0x00, 0x90, 0x3F, 0x3C, 0x85, 0x50, 0x80, 0x3F, 0x40, 0x00, 0x90, 0x3F,
	0x25, 0x85, 0x50, 0x80, 0x3F, 0x40, 0x00, 0x90, 0x3F, 0x25, 0x85, 0x50,
	0x80, 0x3F, 0x40, 0x00, 0x90, 0x3F, 0x3C, 0x85, 0x50, 0x80, 0x3F, 0x40,
	0x00, 0x90, 0x3F, 0x3C, 0x85, 0x50, 0x80, 0x3F, 0x40, 0x00, 0x90, 0x3F,
	0x3C, 0x85, 0x50, 0x90, 0x3B, 0x25, 0x00, 0x80, 0x3F, 0x40, 0x85, 0x50,
	0x80, 0x3B, 0x40, 0x00, 0x90, 0x3B, 0x25, 0x85, 0x50, 0x80, 0x3B, 0x40,
	0x00, 0x90, 0x3B, 0x3C, 0x85, 0x50, 0x80, 0x3B, 0x40, 0x00, 0x90, 0x3B,
	0x25, 0x85, 0x50, 0x80, 0x3B, 0x40, 0x00, 0x90, 0x3B, 0x25, 0x85, 0x50,
	0x80, 0x3B, 0x40, 0x00, 0x90, 0x3B, 0x3C, 0x85, 0x50, 0x80, 0x3B, 0x40,
	0x00, 0x90, 0x3B, 0x3C, 0x85, 0x50, 0x80, 0x3B, 0x40, 0x00, 0x90, 0x3B,
	0x3C, 0x85, 0x50, 0x80, 0x3B, 0x40, 0x00, 0x90, 0x3D, 0x25, 0x85, 0x50,
	0x80, 0x3D, 0x40, 0x00, 0x90, 0x3D, 0x25, 0x85, 0x50, 0x80, 0x3D, 0x40,
	0x00, 0x90, 0x3D, 0x3C, 0x85, 0x50, 0x80, 0x3D, 0x40, 0x00, 0x90, 0x3D,
	0x25, 0x85, 0x50, 0x80, 0x3D, 0x40, 0x00, 0x90, 0x3D, 0x25, 0x85, 0x50,
	0x80, 0x3D, 0x40, 0x00, 0x90, 0x3D, 0x3C, 0x85, 0x50, 0x80, 0x3D, 0x40,
	0x00, 0x90, 0x3D, 0x3C, 0x85, 0x50, 0x80, 0x3D, 0x40, 0x00, 0x90, 0x3D,
	0x3C, 0x85, 0x50, 0x80, 0x3D, 0x40, 0x00, 0x90, 0x3F, 0x3C, 0x85, 0x50,
	0x80, 0x3F, 0x40, 0x00, 0x90, 0x3F, 0x25, 0x85, 0x50, 0x80, 0x3F, 0x40,
	0x00, 0x90, 0x3F, 0x25, 0x85, 0x50, 0x80, 0x3F, 0x40, 0x00, 0x90, 0x3F,
	0x25, 0x85, 0x50, 0x80, 0x3F, 0x40, 0x00, 0x90, 0x3F, 0x25, 0x85, 0x50,
	0x80, 0x3F, 0x40, 0x00, 0x90, 0x3F, 0x3C, 0x85, 0x50, 0x80, 0x3F, 0x40,
	0x00, 0x90, 0x3F, 0x3C, 0x85, 0x50, 0x80, 0x3F, 0x40, 0x00, 0x90, 0x3F,
	0x3C, 0x85, 0x50, 0x80, 0x3F, 0x40, 0x00, 0x90, 0x3F, 0x25, 0x85, 0x50,
	0x80, 0x3F, 0x40, 0x00, 0x90, 0x3F, 0x25, 0x85, 0x50, 0x80, 0x3F, 0x40,
	0x00, 0x90, 0x3F, 0x3C, 0x85, 0x50, 0x80, 0x3F, 0x40, 0x00, 0x90, 0x3F,
	0x25, 0x85, 0x50, 0x80, 0x3F, 0x40, 0x00, 0x90, 0x3F, 0x25, 0x85, 0x50,
	0x80, 0x3F, 0x40, 0x00, 0x90, 0x3F, 0x3C, 0x85, 0x50, 0x80, 0x3F, 0x40,
	0x00, 0x90, 0x3F, 0x3C, 0x85, 0x50, 0x80, 0x3F, 0x40, 0x00, 0x90, 0x3F,
	0x3C, 0x85, 0x50, 0x80, 0x3F, 0x40, 0x00, 0x90, 0x41, 0x25, 0x85, 0x50,
	0x80, 0x41, 0x40, 0x00, 0x90, 0x41, 0x25, 0x85, 0x50, 0x80, 0x41, 0x40,
	0x00, 0x90, 0x41, 0x3C, 0x85, 0x50, 0x80, 0x41, 0x40, 0x00, 0x90, 0x41,
	0x25, 0x85, 0x50, 0x80, 0x41, 0x40, 0x00, 0x90, 0x41, 0x25, 0x85, 0x50,
	0x80, 0x41, 0x40, 0x00, 0x90, 0x41, 0x3C, 0x85, 0x50, 0x80, 0x41, 0x40,
	0x00, 0x90, 0x41, 0x3C, 0x85, 0x50, 0x80, 0x41, 0x40, 0x00, 0x90, 0x41,
	0x3C, 0x85, 0x50, 0x80, 0x41, 0x40, 0x00, 0x90, 0x41, 0x25, 0x85, 0x50,
	0x80, 0x41, 0x40, 0x00, 0x90, 0x41, 0x25, 0x85, 0x50, 0x80, 0x41, 0x40,
	0x00, 0x90, 0x41, 0x3C, 0x85, 0x50, 0x80, 0x41, 0x40, 0x00, 0x90, 0x41,
	0x25, 0x85, 0x50, 0x80, 0x41, 0x40, 0x00, 0x90, 0x41, 0x25, 0x85, 0x50,
	0x80, 0x41, 0x40, 0x00, 0x90, 0x41, 0x3C, 0x85, 0x50, 0x80, 0x41, 0x40,
	0x00, 0x90, 0x41, 0x3C, 0x85, 0x50, 0x80, 0x41, 0x40, 0x00, 0x90, 0x41,
	0x3C, 0x85, 0x50, 0x90, 0x3F, 0x3C, 0x00, 0x80, 0x41, 0x40, 0x85, 0x50,
	0x80, 0x3F, 0x40, 0x00, 0x90, 0x3F, 0x25, 0x85, 0x50, 0x80, 0x3F, 0x40,
	0x00, 0x90, 0x3F, 0x25, 0x85, 0x50, 0x80, 0x3F, 0x40, 0x00, 0x90, 0x3F,
	0x25, 0x85, 0x50, 0x80, 0x3F, 0x40, 0x00, 0x90, 0x3F, 0x25, 0x85, 0x50,
	0x80, 0x3F, 0x40, 0x00, 0x90, 0x3F, 0x3C, 0x85, 0x50, 0x80, 0x3F, 0x40,
	0x00, 0x90, 0x3F, 0x3C, 0x85, 0x50, 0x80, 0x3F, 0x40, 0x00, 0x90, 0x3F,
	0x3C, 0x85, 0x50, 0x80, 0x3F, 0x40, 0x00, 0x90, 0x3F, 0x25, 0x85, 0x50,
	0x80, 0x3F, 0x40, 0x00, 0x90, 0x3F, 0x25, 0x85, 0x50, 0x80, 0x3F, 0x40,
	0x00, 0x90, 0x3F, 0x3C, 0x85, 0x50, 0x80, 0x3F, 0x40, 0x00, 0x90, 0x3F,
	0x25, 0x85, 0x50, 0x80, 0x3F, 0x40, 0x00, 0x90, 0x3F, 0x25, 0x85, 0x50,
	0x80, 0x3F, 0x40, 0x00, 0x90, 0x3F, 0x3C, 0x85, 0x50, 0x80, 0x3F, 0x40,
	0x00, 0x90, 0x3F, 0x3C, 0x85, 0x50, 0x80, 0x3F, 0x40, 0x00, 0x90, 0x3F,
	0x3C, 0x85, 0x50, 0x90, 0x3B, 0x25, 0x00, 0x80, 0x3F, 0x40, 0x85, 0x50,
	0x80, 0x3B, 0x40, 0x00, 0x90, 0x3B, 0x25, 0x85, 0x50, 0x80, 0x3B, 0x40,
	0x00, 0x90, 0x3B, 0x3C, 0x85, 0x50, 0x80, 0x3B, 0x40, 0x00, 0x90, 0x3B,
	0x25, 0x85, 0x50, 0x80, 0x3B, 0x40, 0x00, 0x90, 0x3B, 0x25, 0x85, 0x50,
	0x80, 0x3B, 0x40, 0x00, 0x90, 0x3B, 0x3C, 0x85, 0x50, 0x80, 0x3B, 0x40,
	0x00, 0x90, 0x3B, 0x3C, 0x85, 0x50, 0x80, 0x3B, 0x40, 0x00, 0x90, 0x3B,
	0x3C, 0x85, 0x50, 0x80, 0x3B, 0x40, 0x00, 0x90, 0x3D, 0x25, 0x85, 0x50,
	0x80, 0x3D, 0x40, 0x00, 0x90, 0x3D, 0x25, 0x85, 0x50, 0x80, 0x3D, 0x40,
	0x00, 0x90, 0x3D, 0x3C, 0x85, 0x50, 0x80, 0x3D, 0x40, 0x00, 0x90, 0x3D,
	0x25, 0x85, 0x50, 0x80, 0x3D, 0x40, 0x00, 0x90, 0x3D, 0x25, 0x85, 0x50,
	0x80, 0x3D, 0x40, 0x00, 0x90, 0x3D, 0x3C, 0x85, 0x50, 0x80, 0x3D, 0x40,
	0x00, 0x90, 0x3D, 0x3C, 0x85, 0x50, 0x80, 0x3D, 0x40, 0x00, 0x90, 0x3D,
	0x3C, 0x85, 0x50, 0x80, 0x3D, 0x40, 0x00, 0x90, 0x3F, 0x3C, 0x85, 0x50,
	0x80, 0x3F, 0x40, 0x00, 0x90, 0x3F, 0x25, 0x85, 0x50, 0x80, 0x3F, 0x40,
	0x00, 0x90, 0x3F, 0x25, 0x85, 0x50, 0x80, 0x3F, 0x40, 0x00, 0x90, 0x3F,
	0x25, 0x85, 0x50, 0x80, 0x3F, 0x40, 0x00, 0x90, 0x3F, 0x25, 0x85, 0x50,
	0x80, 0x3F, 0x40, 0x00, 0x90, 0x3F, 0x3C, 0x85, 0x50, 0x80, 0x3F, 0x40,
	0x00, 0x90, 0x3F, 0x3C, 0x85, 0x50, 0x80, 0x3F, 0x40, 0x00, 0x90, 0x3F,
	0x3C, 0x85, 0x50, 0x80, 0x3F, 0x40, 0x00, 0x90, 0x3F, 0x25, 0x85, 0x50,
	0x80, 0x3F, 0x40, 0x00, 0x90, 0x3F, 0x25, 0x85, 0x50, 0x80, 0x3F, 0x40,
	0x00, 0x90, 0x3F, 0x3C, 0x85, 0x50, 0x80, 0x3F, 0x40, 0x00, 0x90, 0x3F,
	0x25, 0x85, 0x50, 0x80, 0x3F, 0x40, 0x00, 0x90, 0x3F, 0x25, 0x85, 0x50,
	0x80, 0x3F, 0x40, 0x00, 0x90, 0x3F, 0x3C, 0x85, 0x50, 0x80, 0x3F, 0x40,
	0x00, 0x90, 0x3F, 0x3C, 0x85, 0x50, 0x80, 0x3F, 0x40, 0x00, 0x90, 0x3F,
	0x3C, 0x85, 0x50, 0x80, 0x3F, 0x40, 0x00, 0x90, 0x41, 0x25, 0x85, 0x50,
	0x80, 0x41, 0x40, 0x00, 0x90, 0x41, 0x25, 0x85, 0x50, 0x80, 0x41, 0x40,
	0x00, 0x90, 0x41, 0x3C, 0x85, 0x50, 0x80, 0x41, 0x40, 0x00, 0x90, 0x41,
	0x25, 0x85, 0x50, 0x80, 0x41, 0x40, 0x00, 0x90, 0x41, 0x25, 0x85, 0x50,
	0x80, 0x41, 0x40, 0x00, 0x90, 0x41, 0x3C, 0x85, 0x50, 0x80, 0x41, 0x40,
	0x00, 0x90, 0x41, 0x3C, 0x85, 0x50, 0x80, 0x41, 0x40, 0x00, 0x90, 0x41,
	0x3C, 0x85, 0x50, 0x80, 0x41, 0x40, 0x00, 0x90, 0x41, 0x25, 0x85, 0x50,
	0x80, 0x41, 0x40, 0x00, 0x90, 0x41, 0x25, 0x85, 0x50, 0x80, 0x41, 0x40,
	0x00, 0x90, 0x41, 0x3C, 0x85, 0x50, 0x80, 0x41, 0x40, 0x00, 0x90, 0x41,
	0x25, 0x85, 0x50, 0x80, 0x41, 0x40, 0x00, 0x90, 0x41, 0x25, 0x85, 0x50,
	0x80, 0x41, 0x40, 0x00, 0x90, 0x41, 0x3C, 0x85, 0x50, 0x80, 0x41, 0x40,
	0x00, 0x90, 0x41, 0x3C, 0x85, 0x50, 0x80, 0x41, 0x40, 0x00, 0x90, 0x41,
	0x3C, 0x85, 0x50, 0x90, 0x3F, 0x3C, 0x00, 0x80, 0x41, 0x40, 0x85, 0x50,
	0x80, 0x3F, 0x40, 0x00, 0x90, 0x3F, 0x25, 0x85, 0x50, 0x80, 0x3F, 0x40,
	0x00, 0x90, 0x3F, 0x25, 0x85, 0x50, 0x80, 0x3F, 0x40, 0x00, 0x90, 0x3F,
	0x25, 0x85, 0x50, 0x80, 0x3F, 0x40, 0x00, 0x90, 0x3F, 0x25, 0x85, 0x50,
	0x80, 0x3F, 0x40, 0x00, 0x90, 0x3F, 0x3C, 0x85, 0x50, 0x80, 0x3F, 0x40,
	0x00, 0x90, 0x3F, 0x3C, 0x85, 0x50, 0x80, 0x3F, 0x40, 0x00, 0x90, 0x3F,
	0x3C, 0x85, 0x50, 0x80, 0x3F, 0x40, 0x00, 0x90, 0x3F, 0x25, 0x85, 0x50,
	0x80, 0x3F, 0x40, 0x00, 0x90, 0x3F, 0x25, 0x85, 0x50, 0x80, 0x3F, 0x40,
	0x00, 0x90, 0x3F, 0x3C, 0x85, 0x50, 0x80, 0x3F, 0x40, 0x00, 0x90, 0x3F,
	0x25, 0x85, 0x50, 0x80, 0x3F, 0x40, 0x00, 0x90, 0x3F, 0x25, 0x85, 0x50,
	0x80, 0x3F, 0x40, 0x00, 0x90, 0x3F, 0x3C, 0x85, 0x50, 0x80, 0x3F, 0x40,
	0x00, 0x90, 0x3F, 0x3C, 0x85, 0x50, 0x80, 0x3F, 0x40, 0x00, 0x90, 0x3F,
	0x3C, 0x85, 0x50, 0x90, 0x3B, 0x25, 0x00, 0x80, 0x3F, 0x40, 0x85, 0x50,
	0x80, 0x3B, 0x40, 0x00, 0x90, 0x3B, 0x25, 0x85, 0x50, 0x80, 0x3B, 0x40,
	0x00, 0x90, 0x3B, 0x3C, 0x85, 0x50, 0x80, 0x3B, 0x40, 0x00, 0x90, 0x3B,
	0x25, 0x85, 0x50, 0x80, 0x3B, 0x40, 0x00, 0x90, 0x3B, 0x25, 0x85, 0x50,
	0x80, 0x3B, 0x40, 0x00, 0x90, 0x3B, 0x3C, 0x85, 0x50, 0x80, 0x3B, 0x40,
	0x00, 0x90, 0x3B, 0x3C, 0x85, 0x50, 0x80, 0x3B, 0x40, 0x00, 0x90, 0x3B,
	0x3C, 0x85, 0x50, 0x80, 0x3B, 0x40, 0x00, 0x90, 0x3D, 0x25, 0x85, 0x50,
	0x80, 0x3D, 0x40, 0x00, 0x90, 0x3D, 0x25, 0x85, 0x50, 0x80, 0x3D, 0x40,
	0x00, 0x90, 0x3D, 0x3C, 0x85, 0x50, 0x80, 0x3D, 0x40, 0x00, 0x90, 0x3D,
	0x25, 0x85, 0x50, 0x80, 0x3D, 0x40, 0x00, 0x90, 0x3D, 0x25, 0x85, 0x50,
	0x80, 0x3D, 0x40, 0x00, 0x90, 0x3D, 0x3C, 0x85, 0x50, 0x80, 0x3D, 0x40,
	0x00, 0x90, 0x3D, 0x3C, 0x85, 0x50, 0x80, 0x3D, 0x40, 0x00, 0x90, 0x3D,
	0x3C, 0x85, 0x50, 0x80, 0x3D, 0x40, 0x00, 0x90, 0x3F, 0x3C, 0x85, 0x50,
	0x80, 0x3F, 0x40, 0x00, 0x90, 0x3F, 0x25, 0x85, 0x50, 0x80, 0x3F, 0x40,
	0x00, 0x90, 0x3F, 0x25, 0x85, 0x50, 0x80, 0x3F, 0x40, 0x00, 0x90, 0x3F,
	0x25, 0x85, 0x50, 0x80, 0x3F, 0x40, 0x00, 0x90, 0x3F, 0x25, 0x85, 0x50,
	0x80, 0x3F, 0x40, 0x00, 0x90, 0x3F, 0x3C, 0x85, 0x50, 0x80, 0x3F, 0x40,
	0x00, 0x90, 0x3F, 0x3C, 0x85, 0x50, 0x80, 0x3F, 0x40, 0x00, 0x90, 0x3F,
	0x3C, 0x85, 0x50, 0x80, 0x3F, 0x40, 0x00, 0x90, 0x3F, 0x25, 0x85, 0x50,
	0x80, 0x3F, 0x40, 0x00, 0x90, 0x3F, 0x25, 0x85, 0x50, 0x80, 0x3F, 0x40,
	0x00, 0x90, 0x3F, 0x3C, 0x85, 0x50, 0x80, 0x3F, 0x40, 0x00, 0x90, 0x3F,
	0x25, 0x85, 0x50, 0x80, 0x3F, 0x40, 0x00, 0x90, 0x3F, 0x25, 0x85, 0x50,
	0x80, 0x3F, 0x40, 0x00, 0x90, 0x3F, 0x3C, 0x85, 0x50, 0x80, 0x3F, 0x40,
	0x00, 0x90, 0x3F, 0x3C, 0x85, 0x50, 0x80, 0x3F, 0x40, 0x00, 0x90, 0x3F,
	0x3C, 0x85, 0x50, 0x80, 0x3F, 0x40, 0x00, 0x90, 0x41, 0x25, 0x85, 0x50,
	0x80, 0x41, 0x40, 0x00, 0x90, 0x41, 0x25, 0x85, 0x50, 0x80, 0x41, 0x40,
	0x00, 0x90, 0x41, 0x3C, 0x85, 0x50, 0x80, 0x41, 0x40, 0x00, 0x90, 0x41,
	0x25, 0x85, 0x50, 0x80, 0x41, 0x40, 0x00, 0x90, 0x41, 0x25, 0x85, 0x50,
	0x80, 0x41, 0x40, 0x00, 0x90, 0x41, 0x3C, 0x85, 0x50, 0x80, 0x41, 0x40,
	0x00, 0x90, 0x41, 0x3C, 0x85, 0x50, 0x80, 0x41, 0x40, 0x00, 0x90, 0x41,
	0x3C, 0x85, 0x50, 0x80, 0x41, 0x40, 0x00, 0x90, 0x41, 0x25, 0x85, 0x50,
	0x80, 0x41, 0x40, 0x00, 0x90, 0x41, 0x25, 0x85, 0x50, 0x80, 0x41, 0x40,
	0x00, 0x90, 0x41, 0x3C, 0x85, 0x50, 0x80, 0x41, 0x40, 0x00, 0x90, 0x41,
	0x25, 0x85, 0x50, 0x80, 0x41, 0x40, 0x00, 0x90, 0x41, 0x25, 0x85, 0x50,
	0x80, 0x41, 0x40, 0x00, 0x90, 0x41, 0x3C, 0x85, 0x50, 0x80, 0x41, 0x40,
	0x00, 0x90, 0x41, 0x3C, 0x85, 0x50, 0x80, 0x41, 0x40, 0x00, 0x90, 0x41,
	0x3C, 0x85, 0x50, 0x90, 0x3F, 0x3C, 0x00, 0x80, 0x41, 0x40, 0x85, 0x50,
	0x80, 0x3F, 0x40, 0x00, 0x90, 0x3F, 0x25, 0x85, 0x50, 0x80, 0x3F, 0x40,
	0x00, 0x90, 0x3F, 0x25, 0x85, 0x50, 0x80, 0x3F, 0x40, 0x00, 0x90, 0x3F,
	0x25, 0x85, 0x50, 0x80, 0x3F, 0x40, 0x00, 0x90, 0x3F, 0x25, 0x85, 0x50,
	0x80, 0x3F, 0x40, 0x00, 0x90, 0x3F, 0x3C, 0x85, 0x50, 0x80, 0x3F, 0x40,
	0x00, 0x90, 0x3F, 0x3C, 0x85, 0x50, 0x80, 0x3F, 0x40, 0x00, 0x90, 0x3F,
	0x3C, 0x85, 0x50, 0x80, 0x3F, 0x40, 0x00, 0x90, 0x3F, 0x25, 0x85, 0x50,
	0x80, 0x3F, 0x40, 0x00, 0x90, 0x3F, 0x25, 0x85, 0x50, 0x80, 0x3F, 0x40,
	0x00, 0x90, 0x3F, 0x3C, 0x85, 0x50, 0x80, 0x3F, 0x40, 0x00, 0x90, 0x3F,
	0x25, 0x85, 0x50, 0x80, 0x3F, 0x40, 0x00, 0x90, 0x3F, 0x25, 0x85, 0x50,
	0x80, 0x3F, 0x40, 0x00, 0x90, 0x3F, 0x3C, 0x85, 0x50, 0x80, 0x3F, 0x40,
	0x00, 0x90, 0x3F, 0x3C, 0x85, 0x50, 0x80, 0x3F, 0x40, 0x00, 0x90, 0x3F,
	0x3C, 0x85, 0x50, 0x90, 0x3B, 0x25, 0x00, 0x80, 0x3F, 0x40, 0x85, 0x50,
	0x80, 0x3B, 0x40, 0x00, 0x90, 0x3B, 0x25, 0x85, 0x50, 0x80, 0x3B, 0x40,
	0x00, 0x90, 0x3B, 0x3C, 0x85, 0x50, 0x80, 0x3B, 0x40, 0x00, 0x90, 0x3B,
	0x25, 0x85, 0x50, 0x80, 0x3B, 0x40, 0x00, 0x90, 0x3B, 0x25, 0x85, 0x50,
	0x80, 0x3B, 0x40, 0x00, 0x90, 0x3B, 0x3C, 0x85, 0x50, 0x80, 0x3B, 0x40,
	0x00, 0x90, 0x3B, 0x3C, 0x85, 0x50, 0x80, 0x3B, 0x40, 0x00, 0x90, 0x3B,
	0x3C, 0x85, 0x50, 0x80, 0x3B, 0x40, 0x00, 0x90, 0x3D, 0x25, 0x85, 0x50,
	0x80, 0x3D, 0x40, 0x00, 0x90, 0x3D, 0x25, 0x85, 0x50, 0x80, 0x3D, 0x40,
	0x00, 0x90, 0x3D, 0x3C, 0x85, 0x50, 0x80, 0x3D, 0x40, 0x00, 0x90, 0x3D,
	0x25, 0x85, 0x50, 0x80, 0x3D, 0x40, 0x00, 0x90, 0x3D, 0x25, 0x85, 0x50,
	0x80, 0x3D, 0x40, 0x00, 0x90, 0x3D, 0x3C, 0x85, 0x50, 0x80, 0x3D, 0x40,
	0x00, 0x90, 0x3D, 0x3C, 0x85, 0x50, 0x80, 0x3D, 0x40, 0x00, 0x90, 0x3D,
	0x3C, 0x85, 0x50, 0x80, 0x3D, 0x40, 0x00, 0x90, 0x3F, 0x3C, 0x85, 0x50,
	0x80, 0x3F, 0x40, 0x00, 0x90, 0x3F, 0x25, 0x85, 0x50, 0x80, 0x3F, 0x40,
	0x00, 0x90, 0x3F, 0x25, 0x85, 0x50, 0x80, 0x3F, 0x40, 0x00, 0x90, 0x3F,
	0x25, 0x85, 0x50, 0x80, 0x3F, 0x40, 0x00, 0x90, 0x3F, 0x25, 0x85, 0x50,
	0x80, 0x3F, 0x40, 0x00, 0x90, 0x3F, 0x3C, 0x85, 0x50, 0x80, 0x3F, 0x40,
	0x00, 0x90, 0x3F, 0x3C, 0x85, 0x50, 0x80, 0x3F, 0x40, 0x00, 0x90, 0x3F,
	0x3C, 0x85, 0x50, 0x80, 0x3F, 0x40, 0x00, 0x90, 0x3F, 0x25, 0x85, 0x50,
	0x80, 0x3F, 0x40, 0x00, 0x90, 0x3F, 0x25, 0x85, 0x50, 0x80, 0x3F, 0x40,
	0x00, 0x90, 0x3F, 0x3C, 0x85, 0x50, 0x80, 0x3F, 0x40, 0x00, 0x90, 0x3F,
	0x25, 0x85, 0x50, 0x80, 0x3F, 0x40, 0x00, 0x90, 0x3F, 0x25, 0x85, 0x50,
	0x80, 0x3F, 0x40, 0x00, 0x90, 0x3F, 0x3C, 0x85, 0x50, 0x80, 0x3F, 0x40,
	0x00, 0x90, 0x3F, 0x3C, 0x85, 0x50, 0x80, 0x3F, 0x40, 0x00, 0x90, 0x3F,
	0x3C, 0x85, 0x50, 0x80, 0x3F, 0x40, 0x00, 0x90, 0x41, 0x25, 0x85, 0x50,
	0x80, 0x41, 0x40, 0x00, 0x90, 0x41, 0x25, 0x85, 0x50, 0x80, 0x41, 0x40,
	0x00, 0x90, 0x41, 0x3C, 0x85, 0x50, 0x80, 0x41, 0x40, 0x00, 0x90, 0x41,
	0x25, 0x85, 0x50, 0x80, 0x41, 0x40, 0x00, 0x90, 0x41, 0x25, 0x85, 0x50,
	0x80, 0x41, 0x40, 0x00, 0x90, 0x41, 0x3C, 0x85, 0x50, 0x80, 0x41, 0x40,
	0x00, 0x90, 0x41, 0x3C, 0x85, 0x50, 0x80, 0x41, 0x40, 0x00, 0x90, 0x41,
	0x3C, 0x85, 0x50, 0x80, 0x41, 0x40, 0x00, 0x90, 0x41, 0x25, 0x85, 0x50,
	0x80, 0x41, 0x40, 0x00, 0x90, 0x41, 0x25, 0x85, 0x50, 0x80, 0x41, 0x40,
	0x00, 0x90, 0x41, 0x3C, 0x85, 0x50, 0x80, 0x41, 0x40, 0x00, 0x90, 0x41,
	0x25, 0x85, 0x50, 0x80, 0x41, 0x40, 0x00, 0x90, 0x41, 0x25, 0x85, 0x50,
	0x80, 0x41, 0x40, 0x00, 0x90, 0x41, 0x3C, 0x85, 0x50, 0x80, 0x41, 0x40,
	0x00, 0x90, 0x41, 0x3C, 0x85, 0x50, 0x80, 0x41, 0x40, 0x00, 0x90, 0x41,
	0x3C, 0x85, 0x46, 0x80, 0x41, 0x40, 0x00, 0xFF, 0x2F, 0x00
};
