/* G:\Alistra\Midi\BassHool.mid (13.08.2019 16:27:39)
   StartOffset(h): 00000000, EndOffset(h): 000000C3, Длина(h): 000000C4 */

unsigned char BassMain[196] = {
	0x4D, 0x54, 0x68, 0x64, 0x00, 0x00, 0x00, 0x06, 0x00, 0x00, 0x00, 0x01,
	0x03, 0xC0, 0x4D, 0x54, 0x72, 0x6B, 0x00, 0x00, 0x00, 0xAE, 0x00, 0xFF,
	0x58, 0x04, 0x04, 0x02, 0x18, 0x08, 0x00, 0xFF, 0x51, 0x03, 0x06, 0x8A,
	0x1B, 0x00, 0xFF, 0x03, 0x05, 0x4C, 0x6F, 0x77, 0x31, 0x00, 0x8F, 0xBC,
	0x00, 0x90, 0x27, 0x3B, 0xDA, 0x00, 0x90, 0x23, 0x3B, 0x00, 0x80, 0x27,
	0x40, 0xDA, 0x00, 0x80, 0x23, 0x40, 0x00, 0x90, 0x27, 0x3B, 0xDA, 0x00,
	0x90, 0x23, 0x3B, 0x00, 0x80, 0x27, 0x40, 0xDA, 0x00, 0x80, 0x23, 0x40,
	0x00, 0x90, 0x27, 0x3B, 0xDA, 0x00, 0x90, 0x23, 0x3B, 0x00, 0x80, 0x27,
	0x40, 0xDA, 0x00, 0x80, 0x23, 0x40, 0x00, 0x90, 0x27, 0x3B, 0xDA, 0x00,
	0x90, 0x23, 0x3B, 0x00, 0x80, 0x27, 0x40, 0xDA, 0x00, 0x80, 0x23, 0x40,
	0x00, 0x90, 0x27, 0x3B, 0xDA, 0x00, 0x90, 0x23, 0x3B, 0x00, 0x80, 0x27,
	0x40, 0xDA, 0x00, 0x80, 0x23, 0x40, 0x00, 0x90, 0x27, 0x3B, 0xDA, 0x00,
	0x90, 0x23, 0x3B, 0x00, 0x80, 0x27, 0x40, 0xDA, 0x00, 0x80, 0x23, 0x40,
	0x00, 0x90, 0x27, 0x3B, 0xDA, 0x00, 0x90, 0x23, 0x3B, 0x00, 0x80, 0x27,
	0x40, 0xDA, 0x00, 0x80, 0x23, 0x40, 0x00, 0x90, 0x27, 0x3B, 0xDA, 0x00,
	0x90, 0x23, 0x3B, 0x00, 0x80, 0x27, 0x40, 0xD9, 0x76, 0x80, 0x23, 0x40,
	0x00, 0xFF, 0x2F, 0x00
};
