/* G:\Alistra\Midi\firstpad.mid (15.08.2019 20:28:08)
   StartOffset(h): 00000000, EndOffset(h): 00000167, Длина(h): 00000168 */

unsigned char GrandData[360] = {
	0x4D, 0x54, 0x68, 0x64, 0x00, 0x00, 0x00, 0x06, 0x00, 0x00, 0x00, 0x01,
	0x03, 0xC0, 0x4D, 0x54, 0x72, 0x6B, 0x00, 0x00, 0x01, 0x52, 0x00, 0xFF,
	0x58, 0x04, 0x04, 0x02, 0x18, 0x08, 0x00, 0xFF, 0x51, 0x03, 0x06, 0x8A,
	0x1B, 0x00, 0xFF, 0x03, 0x04, 0x50, 0x61, 0x64, 0x31, 0x00, 0x90, 0x33,
	0x3B, 0x00, 0x90, 0x36, 0x3B, 0x00, 0x90, 0x3A, 0x3B, 0xBC, 0x00, 0x80,
	0x33, 0x40, 0x00, 0x80, 0x36, 0x40, 0x00, 0x80, 0x3A, 0x40, 0xBC, 0x00,
	0x90, 0x3A, 0x3B, 0x00, 0x90, 0x3D, 0x3B, 0x00, 0x90, 0x41, 0x3C, 0xBC,
	0x00, 0x80, 0x3A, 0x40, 0x00, 0x80, 0x3D, 0x40, 0x00, 0x80, 0x41, 0x40,
	0xBC, 0x00, 0x90, 0x33, 0x3B, 0x00, 0x90, 0x36, 0x3B, 0x00, 0x90, 0x3A,
	0x3B, 0xBC, 0x00, 0x80, 0x33, 0x40, 0x00, 0x80, 0x36, 0x40, 0x00, 0x80,
	0x3A, 0x40, 0xBC, 0x00, 0x90, 0x3A, 0x3B, 0x00, 0x90, 0x3D, 0x3B, 0x00,
	0x90, 0x41, 0x3C, 0xBC, 0x00, 0x80, 0x3A, 0x40, 0x00, 0x80, 0x3D, 0x40,
	0x00, 0x80, 0x41, 0x40, 0xBC, 0x00, 0x90, 0x33, 0x3B, 0x00, 0x90, 0x36,
	0x3B, 0x00, 0x90, 0x3A, 0x3B, 0xBC, 0x00, 0x80, 0x33, 0x40, 0x00, 0x80,
	0x36, 0x40, 0x00, 0x80, 0x3A, 0x40, 0xBC, 0x00, 0x90, 0x3A, 0x3B, 0x00,
	0x90, 0x3D, 0x3B, 0x00, 0x90, 0x41, 0x3C, 0xBC, 0x00, 0x80, 0x3A, 0x40,
	0x00, 0x80, 0x3D, 0x40, 0x00, 0x80, 0x41, 0x40, 0xBC, 0x00, 0x90, 0x33,
	0x3B, 0x00, 0x90, 0x36, 0x3B, 0x00, 0x90, 0x3A, 0x3B, 0xBC, 0x00, 0x80,
	0x33, 0x40, 0x00, 0x80, 0x36, 0x40, 0x00, 0x80, 0x3A, 0x40, 0xBC, 0x00,
	0x90, 0x3A, 0x3B, 0x00, 0x90, 0x3D, 0x3B, 0x00, 0x90, 0x41, 0x3C, 0xBC,
	0x00, 0x80, 0x3A, 0x40, 0x00, 0x80, 0x3D, 0x40, 0x00, 0x80, 0x41, 0x40,
	0xBC, 0x00, 0x90, 0x33, 0x3B, 0x00, 0x90, 0x36, 0x3B, 0x00, 0x90, 0x3A,
	0x3B, 0xBC, 0x00, 0x80, 0x33, 0x40, 0x00, 0x80, 0x36, 0x40, 0x00, 0x80,
	0x3A, 0x40, 0xBC, 0x00, 0x90, 0x3A, 0x3B, 0x00, 0x90, 0x3D, 0x3B, 0x00,
	0x90, 0x41, 0x3C, 0xBC, 0x00, 0x80, 0x3A, 0x40, 0x00, 0x80, 0x3D, 0x40,
	0x00, 0x80, 0x41, 0x40, 0xBC, 0x00, 0x90, 0x33, 0x3B, 0x00, 0x90, 0x36,
	0x3B, 0x00, 0x90, 0x3A, 0x3B, 0xBC, 0x00, 0x80, 0x33, 0x40, 0x00, 0x80,
	0x36, 0x40, 0x00, 0x80, 0x3A, 0x40, 0xBC, 0x00, 0x90, 0x3A, 0x3B, 0x00,
	0x90, 0x3D, 0x3B, 0x00, 0x90, 0x41, 0x3C, 0xBB, 0x76, 0x80, 0x3A, 0x40,
	0x00, 0x80, 0x3D, 0x40, 0x00, 0x80, 0x41, 0x40, 0x00, 0xFF, 0x2F, 0x00
};
