/* G:\Alistra\Midi\KickMidiFull.mid (15.08.2019 21:14:25)
   StartOffset(h): 00000000, EndOffset(h): 00000536, Длина(h): 00000537 */

unsigned char rawData[1335] = {
	0x4D, 0x54, 0x68, 0x64, 0x00, 0x00, 0x00, 0x06, 0x00, 0x00, 0x00, 0x01,
	0x03, 0xC0, 0x4D, 0x54, 0x72, 0x6B, 0x00, 0x00, 0x05, 0x21, 0x00, 0xFF,
	0x58, 0x04, 0x04, 0x02, 0x18, 0x08, 0x00, 0xFF, 0x51, 0x03, 0x06, 0x8A,
	0x1B, 0x00, 0xFF, 0x03, 0x09, 0x4B, 0x69, 0x63, 0x6B, 0x4D, 0x69, 0x64,
	0x69, 0x00, 0x8F, 0xBC, 0x00, 0x90, 0x3C, 0x64, 0x89, 0x30, 0x80, 0x3C,
	0x40, 0x81, 0x70, 0x90, 0x3C, 0x64, 0x89, 0x30, 0x80, 0x3C, 0x40, 0x81,
	0x70, 0x90, 0x3C, 0x64, 0x89, 0x30, 0x80, 0x3C, 0x40, 0x81, 0x70, 0x90,
	0x3C, 0x64, 0x89, 0x30, 0x80, 0x3C, 0x40, 0x81, 0x70, 0x90, 0x3C, 0x64,
	0x89, 0x30, 0x80, 0x3C, 0x40, 0x81, 0x70, 0x90, 0x3C, 0x64, 0x89, 0x30,
	0x80, 0x3C, 0x40, 0x81, 0x70, 0x90, 0x3C, 0x64, 0x89, 0x30, 0x80, 0x3C,
	0x40, 0x81, 0x70, 0x90, 0x3C, 0x64, 0x89, 0x30, 0x80, 0x3C, 0x40, 0x81,
	0x70, 0x90, 0x3C, 0x64, 0x89, 0x30, 0x80, 0x3C, 0x40, 0x81, 0x70, 0x90,
	0x3C, 0x64, 0x89, 0x30, 0x80, 0x3C, 0x40, 0x81, 0x70, 0x90, 0x3C, 0x64,
	0x89, 0x30, 0x80, 0x3C, 0x40, 0x81, 0x70, 0x90, 0x3C, 0x64, 0x89, 0x30,
	0x80, 0x3C, 0x40, 0x81, 0x70, 0x90, 0x3C, 0x64, 0x89, 0x30, 0x80, 0x3C,
	0x40, 0x81, 0x70, 0x90, 0x3C, 0x64, 0x89, 0x30, 0x80, 0x3C, 0x40, 0x81,
	0x70, 0x90, 0x3C, 0x64, 0x89, 0x30, 0x80, 0x3C, 0x40, 0x81, 0x70, 0x90,
	0x3C, 0x64, 0x89, 0x30, 0x80, 0x3C, 0x40, 0x81, 0x70, 0x90, 0x3C, 0x64,
	0x89, 0x30, 0x80, 0x3C, 0x40, 0x81, 0x70, 0x90, 0x3C, 0x64, 0x89, 0x30,
	0x80, 0x3C, 0x40, 0x81, 0x70, 0x90, 0x3C, 0x64, 0x89, 0x30, 0x80, 0x3C,
	0x40, 0x81, 0x70, 0x90, 0x3C, 0x64, 0x89, 0x30, 0x80, 0x3C, 0x40, 0x81,
	0x70, 0x90, 0x3C, 0x64, 0x89, 0x30, 0x80, 0x3C, 0x40, 0x81, 0x70, 0x90,
	0x3C, 0x64, 0x89, 0x30, 0x80, 0x3C, 0x40, 0x81, 0x70, 0x90, 0x3C, 0x64,
	0x89, 0x30, 0x80, 0x3C, 0x40, 0x81, 0x70, 0x90, 0x3C, 0x64, 0x89, 0x30,
	0x80, 0x3C, 0x40, 0x81, 0x70, 0x90, 0x3C, 0x64, 0x89, 0x30, 0x80, 0x3C,
	0x40, 0x81, 0x70, 0x90, 0x3C, 0x64, 0x89, 0x30, 0x80, 0x3C, 0x40, 0x81,
	0x70, 0x90, 0x3C, 0x64, 0x89, 0x30, 0x80, 0x3C, 0x40, 0x81, 0x70, 0x90,
	0x3C, 0x64, 0x89, 0x30, 0x80, 0x3C, 0x40, 0x81, 0x70, 0x90, 0x3C, 0x64,
	0x89, 0x30, 0x80, 0x3C, 0x40, 0x81, 0x70, 0x90, 0x3C, 0x64, 0x89, 0x30,
	0x80, 0x3C, 0x40, 0x81, 0x70, 0x90, 0x3C, 0x64, 0x89, 0x30, 0x80, 0x3C,
	0x40, 0x81, 0x70, 0x90, 0x3C, 0x64, 0x89, 0x30, 0x80, 0x3C, 0x40, 0x81,
	0x70, 0x90, 0x3C, 0x64, 0x89, 0x30, 0x80, 0x3C, 0x40, 0x81, 0x70, 0x90,
	0x3C, 0x64, 0x89, 0x30, 0x80, 0x3C, 0x40, 0x81, 0x70, 0x90, 0x3C, 0x64,
	0x89, 0x30, 0x80, 0x3C, 0x40, 0x81, 0x70, 0x90, 0x3C, 0x64, 0x89, 0x30,
	0x80, 0x3C, 0x40, 0x81, 0x70, 0x90, 0x3C, 0x64, 0x89, 0x30, 0x80, 0x3C,
	0x40, 0x81, 0x70, 0x90, 0x3C, 0x64, 0x89, 0x30, 0x80, 0x3C, 0x40, 0x81,
	0x70, 0x90, 0x3C, 0x64, 0x89, 0x30, 0x80, 0x3C, 0x40, 0x81, 0x70, 0x90,
	0x3C, 0x64, 0x89, 0x30, 0x80, 0x3C, 0x40, 0x81, 0x70, 0x90, 0x3C, 0x64,
	0x89, 0x30, 0x80, 0x3C, 0x40, 0x81, 0x70, 0x90, 0x3C, 0x64, 0x89, 0x30,
	0x80, 0x3C, 0x40, 0x81, 0x70, 0x90, 0x3C, 0x64, 0x89, 0x30, 0x80, 0x3C,
	0x40, 0x81, 0x70, 0x90, 0x3C, 0x64, 0x89, 0x30, 0x80, 0x3C, 0x40, 0x81,
	0x70, 0x90, 0x3C, 0x64, 0x89, 0x30, 0x80, 0x3C, 0x40, 0x81, 0x70, 0x90,
	0x3C, 0x64, 0x89, 0x30, 0x80, 0x3C, 0x40, 0x81, 0x70, 0x90, 0x3C, 0x64,
	0x89, 0x30, 0x80, 0x3C, 0x40, 0x81, 0x70, 0x90, 0x3C, 0x64, 0x89, 0x30,
	0x80, 0x3C, 0x40, 0x81, 0x70, 0x90, 0x3C, 0x64, 0x89, 0x30, 0x80, 0x3C,
	0x40, 0x81, 0x70, 0x90, 0x3C, 0x64, 0x89, 0x30, 0x80, 0x3C, 0x40, 0x81,
	0x70, 0x90, 0x3C, 0x64, 0x89, 0x30, 0x80, 0x3C, 0x40, 0x81, 0x70, 0x90,
	0x3C, 0x64, 0x89, 0x30, 0x80, 0x3C, 0x40, 0x81, 0x70, 0x90, 0x3C, 0x64,
	0x89, 0x30, 0x80, 0x3C, 0x40, 0x81, 0x70, 0x90, 0x3C, 0x64, 0x89, 0x30,
	0x80, 0x3C, 0x40, 0x81, 0x70, 0x90, 0x3C, 0x64, 0x89, 0x30, 0x80, 0x3C,
	0x40, 0x81, 0x70, 0x90, 0x3C, 0x64, 0x89, 0x30, 0x80, 0x3C, 0x40, 0x81,
	0x70, 0x90, 0x3C, 0x64, 0x89, 0x30, 0x80, 0x3C, 0x40, 0x81, 0x70, 0x90,
	0x3C, 0x64, 0x89, 0x30, 0x80, 0x3C, 0x40, 0x81, 0x70, 0x90, 0x3C, 0x64,
	0x89, 0x30, 0x80, 0x3C, 0x40, 0x81, 0x70, 0x90, 0x3C, 0x64, 0x89, 0x30,
	0x80, 0x3C, 0x40, 0x81, 0x70, 0x90, 0x3C, 0x64, 0x89, 0x30, 0x80, 0x3C,
	0x40, 0x81, 0x70, 0x90, 0x3C, 0x64, 0x89, 0x30, 0x80, 0x3C, 0x40, 0x81,
	0x70, 0x90, 0x3C, 0x64, 0x89, 0x30, 0x80, 0x3C, 0x40, 0x81, 0x70, 0x90,
	0x3C, 0x64, 0x89, 0x30, 0x80, 0x3C, 0x40, 0x81, 0x70, 0x90, 0x3C, 0x64,
	0x89, 0x30, 0x80, 0x3C, 0x40, 0x81, 0x70, 0x90, 0x3C, 0x64, 0x89, 0x30,
	0x80, 0x3C, 0x40, 0x81, 0x70, 0x90, 0x3C, 0x64, 0x89, 0x30, 0x80, 0x3C,
	0x40, 0x81, 0x70, 0x90, 0x3C, 0x64, 0x89, 0x30, 0x80, 0x3C, 0x40, 0x81,
	0x70, 0x90, 0x3C, 0x64, 0x89, 0x30, 0x80, 0x3C, 0x40, 0x81, 0x70, 0x90,
	0x3C, 0x64, 0x89, 0x30, 0x80, 0x3C, 0x40, 0x81, 0x70, 0x90, 0x3C, 0x64,
	0x89, 0x30, 0x80, 0x3C, 0x40, 0x81, 0x70, 0x90, 0x3C, 0x64, 0x89, 0x30,
	0x80, 0x3C, 0x40, 0x81, 0x70, 0x90, 0x3C, 0x64, 0x89, 0x30, 0x80, 0x3C,
	0x40, 0x81, 0x70, 0x90, 0x3C, 0x64, 0x89, 0x30, 0x80, 0x3C, 0x40, 0x81,
	0x70, 0x90, 0x3C, 0x64, 0x89, 0x30, 0x80, 0x3C, 0x40, 0x81, 0x70, 0x90,
	0x3C, 0x64, 0x89, 0x30, 0x80, 0x3C, 0x40, 0x81, 0x70, 0x90, 0x3C, 0x64,
	0x89, 0x30, 0x80, 0x3C, 0x40, 0x81, 0x70, 0x90, 0x3C, 0x64, 0x89, 0x30,
	0x80, 0x3C, 0x40, 0x81, 0x70, 0x90, 0x3C, 0x64, 0x89, 0x30, 0x80, 0x3C,
	0x40, 0x81, 0x70, 0x90, 0x3C, 0x64, 0x89, 0x30, 0x80, 0x3C, 0x40, 0x81,
	0x70, 0x90, 0x3C, 0x64, 0x89, 0x30, 0x80, 0x3C, 0x40, 0x81, 0x70, 0x90,
	0x3C, 0x64, 0x89, 0x30, 0x80, 0x3C, 0x40, 0x81, 0x70, 0x90, 0x3C, 0x64,
	0x89, 0x30, 0x80, 0x3C, 0x40, 0x81, 0x70, 0x90, 0x3C, 0x64, 0x89, 0x30,
	0x80, 0x3C, 0x40, 0x81, 0x70, 0x90, 0x3C, 0x64, 0x89, 0x30, 0x80, 0x3C,
	0x40, 0x81, 0x70, 0x90, 0x3C, 0x64, 0x89, 0x30, 0x80, 0x3C, 0x40, 0x81,
	0x70, 0x90, 0x3C, 0x64, 0x89, 0x30, 0x80, 0x3C, 0x40, 0x81, 0x70, 0x90,
	0x3C, 0x64, 0x89, 0x30, 0x80, 0x3C, 0x40, 0x81, 0x70, 0x90, 0x3C, 0x64,
	0x89, 0x30, 0x80, 0x3C, 0x40, 0x81, 0x70, 0x90, 0x3C, 0x64, 0x89, 0x30,
	0x80, 0x3C, 0x40, 0x81, 0x70, 0x90, 0x3C, 0x64, 0x89, 0x30, 0x80, 0x3C,
	0x40, 0x81, 0x70, 0x90, 0x3C, 0x64, 0x89, 0x30, 0x80, 0x3C, 0x40, 0x81,
	0x70, 0x90, 0x3C, 0x64, 0x89, 0x30, 0x80, 0x3C, 0x40, 0x81, 0x70, 0x90,
	0x3C, 0x64, 0x89, 0x30, 0x80, 0x3C, 0x40, 0x81, 0x70, 0x90, 0x3C, 0x64,
	0x89, 0x30, 0x80, 0x3C, 0x40, 0x81, 0x70, 0x90, 0x3C, 0x64, 0x89, 0x30,
	0x80, 0x3C, 0x40, 0x81, 0x70, 0x90, 0x3C, 0x64, 0x89, 0x30, 0x80, 0x3C,
	0x40, 0x81, 0x70, 0x90, 0x3C, 0x64, 0x89, 0x30, 0x80, 0x3C, 0x40, 0x81,
	0x70, 0x90, 0x3C, 0x64, 0x89, 0x30, 0x80, 0x3C, 0x40, 0x81, 0x70, 0x90,
	0x3C, 0x64, 0x89, 0x30, 0x80, 0x3C, 0x40, 0x81, 0x70, 0x90, 0x3C, 0x64,
	0x89, 0x30, 0x80, 0x3C, 0x40, 0x81, 0x70, 0x90, 0x3C, 0x64, 0x89, 0x30,
	0x80, 0x3C, 0x40, 0x81, 0x70, 0x90, 0x3C, 0x64, 0x89, 0x30, 0x80, 0x3C,
	0x40, 0x81, 0x70, 0x90, 0x3C, 0x64, 0x89, 0x30, 0x80, 0x3C, 0x40, 0x81,
	0x70, 0x90, 0x3C, 0x64, 0x89, 0x30, 0x80, 0x3C, 0x40, 0x81, 0x70, 0x90,
	0x3C, 0x64, 0x89, 0x30, 0x80, 0x3C, 0x40, 0x81, 0x70, 0x90, 0x3C, 0x64,
	0x89, 0x30, 0x80, 0x3C, 0x40, 0x81, 0x70, 0x90, 0x3C, 0x64, 0x89, 0x30,
	0x80, 0x3C, 0x40, 0x81, 0x70, 0x90, 0x3C, 0x64, 0x89, 0x30, 0x80, 0x3C,
	0x40, 0x81, 0x70, 0x90, 0x3C, 0x64, 0x89, 0x30, 0x80, 0x3C, 0x40, 0x81,
	0x70, 0x90, 0x3C, 0x64, 0x89, 0x30, 0x80, 0x3C, 0x40, 0x81, 0x70, 0x90,
	0x3C, 0x64, 0x89, 0x30, 0x80, 0x3C, 0x40, 0x81, 0x70, 0x90, 0x3C, 0x64,
	0x89, 0x30, 0x80, 0x3C, 0x40, 0x81, 0x70, 0x90, 0x3C, 0x64, 0x89, 0x30,
	0x80, 0x3C, 0x40, 0x81, 0x70, 0x90, 0x3C, 0x64, 0x89, 0x30, 0x80, 0x3C,
	0x40, 0x81, 0x70, 0x90, 0x3C, 0x64, 0x89, 0x30, 0x80, 0x3C, 0x40, 0x81,
	0x70, 0x90, 0x3C, 0x64, 0x89, 0x30, 0x80, 0x3C, 0x40, 0x81, 0x70, 0x90,
	0x3C, 0x64, 0x89, 0x30, 0x80, 0x3C, 0x40, 0x81, 0x70, 0x90, 0x3C, 0x64,
	0x89, 0x30, 0x80, 0x3C, 0x40, 0x81, 0x70, 0x90, 0x3C, 0x64, 0x89, 0x30,
	0x80, 0x3C, 0x40, 0x81, 0x70, 0x90, 0x3C, 0x64, 0x89, 0x30, 0x80, 0x3C,
	0x40, 0x81, 0x70, 0x90, 0x3C, 0x64, 0x89, 0x30, 0x80, 0x3C, 0x40, 0x81,
	0x70, 0x90, 0x3C, 0x64, 0x89, 0x30, 0x80, 0x3C, 0x40, 0x81, 0x70, 0x90,
	0x3C, 0x64, 0x89, 0x30, 0x80, 0x3C, 0x40, 0x81, 0x70, 0x90, 0x3C, 0x64,
	0x89, 0x30, 0x80, 0x3C, 0x40, 0x81, 0x70, 0x90, 0x3C, 0x64, 0x89, 0x30,
	0x80, 0x3C, 0x40, 0x81, 0x70, 0x90, 0x3C, 0x64, 0x89, 0x30, 0x80, 0x3C,
	0x40, 0x81, 0x70, 0x90, 0x3C, 0x64, 0x89, 0x30, 0x80, 0x3C, 0x40, 0x00,
	0xFF, 0x2F, 0x00
};
