/* G:\Alistra\Midi\PadOut.mid (13.08.2019 16:54:31)
   StartOffset(h): 00000000, EndOffset(h): 0000012D, Длина(h): 0000012E */

unsigned char PadOut[302] = {
	0x4D, 0x54, 0x68, 0x64, 0x00, 0x00, 0x00, 0x06, 0x00, 0x00, 0x00, 0x01,
	0x03, 0xC0, 0x4D, 0x54, 0x72, 0x6B, 0x00, 0x00, 0x01, 0x18, 0x00, 0xFF,
	0x58, 0x04, 0x04, 0x02, 0x18, 0x08, 0x00, 0xFF, 0x51, 0x03, 0x06, 0x8A,
	0x1B, 0x00, 0xFF, 0x03, 0x0D, 0x33, 0x2D, 0x4F, 0x70, 0x65, 0x72, 0x61,
	0x74, 0x6F, 0x72, 0x20, 0x31, 0x00, 0x00, 0x90, 0x31, 0x64, 0xBC, 0x00,
	0x80, 0x31, 0x40, 0xAD, 0x00, 0x90, 0x35, 0x64, 0xC9, 0x60, 0x80, 0x35,
	0x40, 0xAE, 0x20, 0x90, 0x38, 0x64, 0x81, 0xE1, 0x00, 0x80, 0x38, 0x40,
	0x9E, 0x00, 0x90, 0x3D, 0x64, 0xBC, 0x00, 0x80, 0x3D, 0x40, 0xAD, 0x00,
	0x90, 0x3A, 0x64, 0xCB, 0x00, 0x80, 0x3A, 0x40, 0xAD, 0x00, 0x90, 0x38,
	0x64, 0xCB, 0x00, 0x80, 0x38, 0x40, 0xAD, 0x00, 0x90, 0x36, 0x78, 0xCB,
	0x00, 0x80, 0x36, 0x40, 0xBC, 0x00, 0x90, 0x31, 0x64, 0xBC, 0x00, 0x80,
	0x31, 0x40, 0xAD, 0x00, 0x90, 0x35, 0x64, 0xC9, 0x60, 0x80, 0x35, 0x40,
	0xAE, 0x20, 0x90, 0x38, 0x64, 0xCB, 0x00, 0x80, 0x38, 0x40, 0xAD, 0x00,
	0x90, 0x3D, 0x78, 0xC3, 0x40, 0x80, 0x3D, 0x40, 0xC3, 0x40, 0x90, 0x3A,
	0x64, 0xBC, 0x00, 0x80, 0x3A, 0x40, 0xAD, 0x00, 0x90, 0x38, 0x64, 0xCB,
	0x00, 0x80, 0x38, 0x40, 0xAD, 0x00, 0x90, 0x36, 0x64, 0xCB, 0x00, 0x80,
	0x36, 0x40, 0xAD, 0x00, 0x90, 0x35, 0x78, 0xCB, 0x00, 0x80, 0x35, 0x40,
	0xBC, 0x00, 0x90, 0x33, 0x78, 0xAD, 0x00, 0x80, 0x33, 0x40, 0x85, 0xDF,
	0x00, 0x90, 0x33, 0x78, 0xDA, 0x00, 0x80, 0x33, 0x40, 0x00, 0x90, 0x35,
	0x78, 0xDA, 0x00, 0x80, 0x35, 0x40, 0x00, 0x90, 0x36, 0x78, 0xDA, 0x00,
	0x80, 0x36, 0x40, 0x00, 0x90, 0x38, 0x78, 0xDA, 0x00, 0x80, 0x38, 0x40,
	0x00, 0x90, 0x3A, 0x64, 0xDA, 0x00, 0x80, 0x3A, 0x40, 0x00, 0x90, 0x3D,
	0x64, 0xDA, 0x00, 0x80, 0x3D, 0x40, 0x00, 0x90, 0x42, 0x78, 0xDA, 0x00,
	0x90, 0x41, 0x78, 0x00, 0x80, 0x42, 0x40, 0xDA, 0x00, 0x80, 0x41, 0x40,
	0x9E, 0x00, 0x90, 0x33, 0x78, 0xF7, 0x76, 0x80, 0x33, 0x40, 0x00, 0xFF,
	0x2F, 0x00
};
