/* G:\Alistra\Midi\PadStrings.mid (13.08.2019 17:28:51)
   StartOffset(h): 00000000, EndOffset(h): 00000094, Длина(h): 00000095 */

unsigned char rawData[149] = {
	0x4D, 0x54, 0x68, 0x64, 0x00, 0x00, 0x00, 0x06, 0x00, 0x00, 0x00, 0x01,
	0x03, 0xC0, 0x4D, 0x54, 0x72, 0x6B, 0x00, 0x00, 0x00, 0x7F, 0x00, 0xFF,
	0x58, 0x04, 0x04, 0x02, 0x18, 0x08, 0x00, 0xFF, 0x51, 0x03, 0x06, 0x8A,
	0x1B, 0x00, 0xFF, 0x03, 0x04, 0x50, 0x61, 0x64, 0x31, 0x00, 0x90, 0x3A,
	0x3B, 0xDA, 0x00, 0x80, 0x3A, 0x40, 0x9E, 0x00, 0x90, 0x41, 0x3C, 0xDA,
	0x00, 0x80, 0x41, 0x40, 0x9E, 0x00, 0x90, 0x3A, 0x3B, 0xDA, 0x00, 0x80,
	0x3A, 0x40, 0x9E, 0x00, 0x90, 0x41, 0x3C, 0xDA, 0x00, 0x80, 0x41, 0x40,
	0x9E, 0x00, 0x90, 0x3A, 0x3B, 0xDA, 0x00, 0x80, 0x3A, 0x40, 0x9E, 0x00,
	0x90, 0x41, 0x3C, 0xDA, 0x00, 0x80, 0x41, 0x40, 0x9E, 0x00, 0x90, 0x3A,
	0x3B, 0xDA, 0x00, 0x80, 0x3A, 0x40, 0x81, 0x96, 0x00, 0x90, 0x3A, 0x3B,
	0xDA, 0x00, 0x80, 0x3A, 0x40, 0x9E, 0x00, 0x90, 0x41, 0x3C, 0xDA, 0x00,
	0x80, 0x41, 0x40, 0x9E, 0x00, 0x90, 0x3A, 0x3B, 0xBC, 0x00, 0x80, 0x3A,
	0x40, 0x00, 0xFF, 0x2F, 0x00
};
